<?xml version="1.0" encoding="UTF-8" standalone="no"?>
<!DOCTYPE svg PUBLIC "-//W3C//DTD SVG 1.1//EN" "http://www.w3.org/Graphics/SVG/1.1/DTD/svg11.dtd">
<svg width="100%" height="100%" viewBox="0 0 2350 3606" version="1.1" xmlns="http://www.w3.org/2000/svg" xmlns:xlink="http://www.w3.org/1999/xlink" xml:space="preserve" xmlns:serif="http://www.serif.com/" style="fill-rule:evenodd;clip-rule:evenodd;stroke-linejoin:round;stroke-miterlimit:2;">
    <g id="Artboard1" transform="matrix(0.96041,0,0,1,-298.278,-233.455)">
        <rect x="310.573" y="233.455" width="2446.55" height="3605.63" style="fill:none;"/>
        <g transform="matrix(4.33842,0,0,4.16667,-12.2057,0.454866)">
            <g>
                <path d="M489.137,65C493.862,65 497.693,68.831 497.693,73.556C497.693,78.281 493.862,82.112 489.137,82.112C484.412,82.112 480.582,78.281 480.582,73.556C480.582,68.831 484.412,65 489.137,65Z" style="fill:rgb(27,22,22);fill-rule:nonzero;"/>
                <path d="M511.056,65C515.781,65 519.612,68.831 519.612,73.556C519.612,78.281 515.781,82.112 511.056,82.112C506.331,82.112 502.5,78.281 502.5,73.556C502.5,68.831 506.331,65 511.056,65Z" style="fill:rgb(27,22,22);fill-rule:nonzero;"/>
                <path d="M489.137,86.92C493.862,86.92 497.693,90.75 497.693,95.476C497.693,100.2 493.862,104.031 489.137,104.031C484.412,104.031 480.582,100.2 480.582,95.476C480.582,90.75 484.412,86.92 489.137,86.92Z" style="fill:rgb(27,22,22);fill-rule:nonzero;"/>
                <path d="M489.137,108.838C493.862,108.838 497.693,112.669 497.693,117.394C497.693,122.12 493.862,125.95 489.137,125.95C484.412,125.95 480.582,122.12 480.582,117.394C480.582,112.669 484.412,108.838 489.137,108.838Z" style="fill:rgb(27,22,22);fill-rule:nonzero;"/>
                <path d="M489.137,130.749C493.862,130.749 497.693,134.58 497.693,139.305C497.693,144.03 493.862,147.861 489.137,147.861C484.412,147.861 480.582,144.03 480.582,139.305C480.582,134.58 484.412,130.749 489.137,130.749Z" style="fill:rgb(27,22,22);fill-rule:nonzero;"/>
                <path d="M401.46,196.507C406.185,196.507 410.016,200.337 410.016,205.063C410.016,209.788 406.185,213.618 401.46,213.618C396.735,213.618 392.904,209.788 392.904,205.063C392.904,200.337 396.735,196.507 401.46,196.507Z" style="fill:rgb(27,22,22);fill-rule:nonzero;"/>
                <path d="M401.46,218.426C406.185,218.426 410.016,222.257 410.016,226.982C410.016,231.707 406.185,235.538 401.46,235.538C396.735,235.538 392.904,231.707 392.904,226.982C392.904,222.257 396.735,218.426 401.46,218.426Z" style="fill:rgb(27,22,22);fill-rule:nonzero;"/>
                <path d="M335.702,240.337C340.427,240.337 344.258,244.167 344.258,248.893C344.258,253.618 340.427,257.448 335.702,257.448C330.977,257.448 327.146,253.618 327.146,248.893C327.146,244.167 330.977,240.337 335.702,240.337Z" style="fill:rgb(27,22,22);fill-rule:nonzero;"/>
                <path d="M401.46,240.337C406.185,240.337 410.016,244.167 410.016,248.893C410.016,253.618 406.185,257.448 401.46,257.448C396.735,257.448 392.904,253.618 392.904,248.893C392.904,244.167 396.735,240.337 401.46,240.337Z" style="fill:rgb(27,22,22);fill-rule:nonzero;"/>
                <path d="M269.953,262.256C274.678,262.256 278.509,266.086 278.509,270.812C278.509,275.537 274.678,279.368 269.953,279.368C265.228,279.368 261.397,275.537 261.397,270.812C261.397,266.086 265.228,262.256 269.953,262.256Z" style="fill:rgb(27,22,22);fill-rule:nonzero;"/>
                <path d="M335.702,262.256C340.427,262.256 344.258,266.086 344.258,270.812C344.258,275.537 340.427,279.368 335.702,279.368C330.977,279.368 327.146,275.537 327.146,270.812C327.146,266.086 330.977,262.256 335.702,262.256Z" style="fill:rgb(27,22,22);fill-rule:nonzero;"/>
                <path d="M357.622,262.256C362.347,262.256 366.177,266.086 366.177,270.812C366.177,275.537 362.347,279.368 357.622,279.368C352.896,279.368 349.066,275.537 349.066,270.812C349.066,266.086 352.896,262.256 357.622,262.256Z" style="fill:rgb(27,22,22);fill-rule:nonzero;"/>
                <path d="M379.541,262.256C384.266,262.256 388.096,266.086 388.096,270.812C388.096,275.537 384.266,279.368 379.541,279.368C374.815,279.368 370.985,275.537 370.985,270.812C370.985,266.086 374.815,262.256 379.541,262.256Z" style="fill:rgb(27,22,22);fill-rule:nonzero;"/>
                <path d="M401.46,262.256C406.185,262.256 410.016,266.086 410.016,270.812C410.016,275.537 406.185,279.368 401.46,279.368C396.735,279.368 392.904,275.537 392.904,270.812C392.904,266.086 396.735,262.256 401.46,262.256Z" style="fill:rgb(27,22,22);fill-rule:nonzero;"/>
                <path d="M248.034,284.184C252.759,284.184 256.588,288.015 256.588,292.74C256.588,297.465 252.759,301.295 248.034,301.295C243.309,301.295 239.478,297.465 239.478,292.74C239.478,288.015 243.309,284.184 248.034,284.184Z" style="fill:rgb(27,22,22);fill-rule:nonzero;"/>
                <path d="M313.783,284.184C318.508,284.184 322.339,288.015 322.339,292.74C322.339,297.465 318.508,301.295 313.783,301.295C309.058,301.295 305.228,297.465 305.228,292.74C305.228,288.015 309.058,284.184 313.783,284.184Z" style="fill:rgb(27,22,22);fill-rule:nonzero;"/>
                <path d="M335.702,284.184C340.427,284.184 344.258,288.015 344.258,292.74C344.258,297.465 340.427,301.295 335.702,301.295C330.977,301.295 327.146,297.465 327.146,292.74C327.146,288.015 330.977,284.184 335.702,284.184Z" style="fill:rgb(27,22,22);fill-rule:nonzero;"/>
                <path d="M357.622,284.184C362.347,284.184 366.177,288.015 366.177,292.74C366.177,297.465 362.347,301.295 357.622,301.295C352.896,301.295 349.066,297.465 349.066,292.74C349.066,288.015 352.896,284.184 357.622,284.184Z" style="fill:rgb(27,22,22);fill-rule:nonzero;"/>
                <path d="M379.541,284.184C384.266,284.184 388.096,288.015 388.096,292.74C388.096,297.465 384.266,301.295 379.541,301.295C374.815,301.295 370.985,297.465 370.985,292.74C370.985,288.015 374.815,284.184 379.541,284.184Z" style="fill:rgb(27,22,22);fill-rule:nonzero;"/>
                <path d="M248.034,306.095C252.759,306.095 256.588,309.925 256.588,314.65C256.588,319.375 252.759,323.206 248.034,323.206C243.309,323.206 239.478,319.375 239.478,314.65C239.478,309.925 243.309,306.095 248.034,306.095Z" style="fill:rgb(27,22,22);fill-rule:nonzero;"/>
                <path d="M291.872,306.095C296.598,306.095 300.428,309.925 300.428,314.65C300.428,319.375 296.598,323.206 291.872,323.206C287.147,323.206 283.316,319.375 283.316,314.65C283.316,309.925 287.147,306.095 291.872,306.095Z" style="fill:rgb(27,22,22);fill-rule:nonzero;"/>
                <path d="M313.783,306.095C318.508,306.095 322.339,309.925 322.339,314.65C322.339,319.375 318.508,323.206 313.783,323.206C309.058,323.206 305.228,319.375 305.228,314.65C305.228,309.925 309.058,306.095 313.783,306.095Z" style="fill:rgb(27,22,22);fill-rule:nonzero;"/>
                <path d="M335.702,306.095C340.427,306.095 344.258,309.925 344.258,314.65C344.258,319.375 340.427,323.206 335.702,323.206C330.977,323.206 327.146,319.375 327.146,314.65C327.146,309.925 330.977,306.095 335.702,306.095Z" style="fill:rgb(27,22,22);fill-rule:nonzero;"/>
                <path d="M357.622,306.095C362.347,306.095 366.177,309.925 366.177,314.65C366.177,319.375 362.347,323.206 357.622,323.206C352.896,323.206 349.066,319.375 349.066,314.65C349.066,309.925 352.896,306.095 357.622,306.095Z" style="fill:rgb(27,22,22);fill-rule:nonzero;"/>
                <path d="M226.115,328.014C230.84,328.014 234.67,331.844 234.67,336.569C234.67,341.295 230.84,345.125 226.115,345.125C221.389,345.125 217.559,341.295 217.559,336.569C217.559,331.844 221.389,328.014 226.115,328.014Z" style="fill:rgb(27,22,22);fill-rule:nonzero;"/>
                <path d="M269.953,328.014C274.678,328.014 278.509,331.844 278.509,336.569C278.509,341.295 274.678,345.125 269.953,345.125C265.228,345.125 261.397,341.295 261.397,336.569C261.397,331.844 265.228,328.014 269.953,328.014Z" style="fill:rgb(27,22,22);fill-rule:nonzero;"/>
                <path d="M291.872,328.014C296.598,328.014 300.428,331.844 300.428,336.569C300.428,341.295 296.598,345.125 291.872,345.125C287.147,345.125 283.316,341.295 283.316,336.569C283.316,331.844 287.147,328.014 291.872,328.014Z" style="fill:rgb(27,22,22);fill-rule:nonzero;"/>
                <path d="M313.783,328.014C318.508,328.014 322.339,331.844 322.339,336.569C322.339,341.295 318.508,345.125 313.783,345.125C309.058,345.125 305.228,341.295 305.228,336.569C305.228,331.844 309.058,328.014 313.783,328.014Z" style="fill:rgb(27,22,22);fill-rule:nonzero;"/>
                <path d="M335.702,328.014C340.427,328.014 344.258,331.844 344.258,336.569C344.258,341.295 340.427,345.125 335.702,345.125C330.977,345.125 327.146,341.295 327.146,336.569C327.146,331.844 330.977,328.014 335.702,328.014Z" style="fill:rgb(27,22,22);fill-rule:nonzero;"/>
                <path d="M357.622,328.014C362.347,328.014 366.177,331.844 366.177,336.569C366.177,341.295 362.347,345.125 357.622,345.125C352.896,345.125 349.066,341.295 349.066,336.569C349.066,331.844 352.896,328.014 357.622,328.014Z" style="fill:rgb(27,22,22);fill-rule:nonzero;"/>
                <path d="M379.541,328.014C384.266,328.014 388.096,331.844 388.096,336.569C388.096,341.295 384.266,345.125 379.541,345.125C374.815,345.125 370.985,341.295 370.985,336.569C370.985,331.844 374.815,328.014 379.541,328.014Z" style="fill:rgb(27,22,22);fill-rule:nonzero;"/>
                <path d="M401.46,328.014C406.185,328.014 410.016,331.844 410.016,336.569C410.016,341.295 406.185,345.125 401.46,345.125C396.735,345.125 392.904,341.295 392.904,336.569C392.904,331.844 396.735,328.014 401.46,328.014Z" style="fill:rgb(27,22,22);fill-rule:nonzero;"/>
                <path d="M423.379,328.014C428.104,328.014 431.935,331.844 431.935,336.569C431.935,341.295 428.104,345.125 423.379,345.125C418.654,345.125 414.824,341.295 414.824,336.569C414.824,331.844 418.654,328.014 423.379,328.014Z" style="fill:rgb(27,22,22);fill-rule:nonzero;"/>
                <path d="M445.298,328.014C450.023,328.014 453.854,331.844 453.854,336.569C453.854,341.295 450.023,345.125 445.298,345.125C440.573,345.125 436.743,341.295 436.743,336.569C436.743,331.844 440.573,328.014 445.298,328.014Z" style="fill:rgb(27,22,22);fill-rule:nonzero;"/>
                <path d="M467.218,328.014C471.943,328.014 475.773,331.844 475.773,336.569C475.773,341.295 471.943,345.125 467.218,345.125C462.493,345.125 458.662,341.295 458.662,336.569C458.662,331.844 462.493,328.014 467.218,328.014Z" style="fill:rgb(27,22,22);fill-rule:nonzero;"/>
                <path d="M226.115,349.924C230.84,349.924 234.67,353.755 234.67,358.48C234.67,363.205 230.84,367.036 226.115,367.036C221.389,367.036 217.559,363.205 217.559,358.48C217.559,353.755 221.389,349.924 226.115,349.924Z" style="fill:rgb(27,22,22);fill-rule:nonzero;"/>
                <path d="M269.953,349.924C274.678,349.924 278.509,353.755 278.509,358.48C278.509,363.205 274.678,367.036 269.953,367.036C265.228,367.036 261.397,363.205 261.397,358.48C261.397,353.755 265.228,349.924 269.953,349.924Z" style="fill:rgb(27,22,22);fill-rule:nonzero;"/>
                <path d="M291.872,349.924C296.598,349.924 300.428,353.755 300.428,358.48C300.428,363.205 296.598,367.036 291.872,367.036C287.147,367.036 283.316,363.205 283.316,358.48C283.316,353.755 287.147,349.924 291.872,349.924Z" style="fill:rgb(27,22,22);fill-rule:nonzero;"/>
                <path d="M313.783,349.924C318.508,349.924 322.339,353.755 322.339,358.48C322.339,363.205 318.508,367.036 313.783,367.036C309.058,367.036 305.228,363.205 305.228,358.48C305.228,353.755 309.058,349.924 313.783,349.924Z" style="fill:rgb(27,22,22);fill-rule:nonzero;"/>
                <path d="M335.702,349.924C340.427,349.924 344.258,353.755 344.258,358.48C344.258,363.205 340.427,367.036 335.702,367.036C330.977,367.036 327.146,363.205 327.146,358.48C327.146,353.755 330.977,349.924 335.702,349.924Z" style="fill:rgb(27,22,22);fill-rule:nonzero;"/>
                <path d="M357.622,349.924C362.347,349.924 366.177,353.755 366.177,358.48C366.177,363.205 362.347,367.036 357.622,367.036C352.896,367.036 349.066,363.205 349.066,358.48C349.066,353.755 352.896,349.924 357.622,349.924Z" style="fill:rgb(27,22,22);fill-rule:nonzero;"/>
                <path d="M379.541,349.924C384.266,349.924 388.096,353.755 388.096,358.48C388.096,363.205 384.266,367.036 379.541,367.036C374.815,367.036 370.985,363.205 370.985,358.48C370.985,353.755 374.815,349.924 379.541,349.924Z" style="fill:rgb(27,22,22);fill-rule:nonzero;"/>
                <path d="M401.46,349.924C406.185,349.924 410.016,353.755 410.016,358.48C410.016,363.205 406.185,367.036 401.46,367.036C396.735,367.036 392.904,363.205 392.904,358.48C392.904,353.755 396.735,349.924 401.46,349.924Z" style="fill:rgb(27,22,22);fill-rule:nonzero;"/>
                <path d="M423.379,349.924C428.104,349.924 431.935,353.755 431.935,358.48C431.935,363.205 428.104,367.036 423.379,367.036C418.654,367.036 414.824,363.205 414.824,358.48C414.824,353.755 418.654,349.924 423.379,349.924Z" style="fill:rgb(27,22,22);fill-rule:nonzero;"/>
                <path d="M445.298,349.924C450.023,349.924 453.854,353.755 453.854,358.48C453.854,363.205 450.023,367.036 445.298,367.036C440.573,367.036 436.743,363.205 436.743,358.48C436.743,353.755 440.573,349.924 445.298,349.924Z" style="fill:rgb(27,22,22);fill-rule:nonzero;"/>
                <path d="M269.953,371.853C274.678,371.853 278.509,375.683 278.509,380.408C278.509,385.133 274.678,388.964 269.953,388.964C265.228,388.964 261.397,385.133 261.397,380.408C261.397,375.683 265.228,371.853 269.953,371.853Z" style="fill:rgb(27,22,22);fill-rule:nonzero;"/>
                <path d="M291.872,371.853C296.598,371.853 300.428,375.683 300.428,380.408C300.428,385.133 296.598,388.964 291.872,388.964C287.147,388.964 283.316,385.133 283.316,380.408C283.316,375.683 287.147,371.853 291.872,371.853Z" style="fill:rgb(27,22,22);fill-rule:nonzero;"/>
                <path d="M313.783,371.853C318.508,371.853 322.339,375.683 322.339,380.408C322.339,385.133 318.508,388.964 313.783,388.964C309.058,388.964 305.228,385.133 305.228,380.408C305.228,375.683 309.058,371.853 313.783,371.853Z" style="fill:rgb(27,22,22);fill-rule:nonzero;"/>
                <path d="M335.702,371.853C340.427,371.853 344.258,375.683 344.258,380.408C344.258,385.133 340.427,388.964 335.702,388.964C330.977,388.964 327.146,385.133 327.146,380.408C327.146,375.683 330.977,371.853 335.702,371.853Z" style="fill:rgb(27,22,22);fill-rule:nonzero;"/>
                <path d="M357.622,371.853C362.347,371.853 366.177,375.683 366.177,380.408C366.177,385.133 362.347,388.964 357.622,388.964C352.896,388.964 349.066,385.133 349.066,380.408C349.066,375.683 352.896,371.853 357.622,371.853Z" style="fill:rgb(27,22,22);fill-rule:nonzero;"/>
                <path d="M379.541,371.853C384.266,371.853 388.096,375.683 388.096,380.408C388.096,385.133 384.266,388.964 379.541,388.964C374.815,388.964 370.985,385.133 370.985,380.408C370.985,375.683 374.815,371.853 379.541,371.853Z" style="fill:rgb(27,22,22);fill-rule:nonzero;"/>
                <path d="M401.46,371.853C406.185,371.853 410.016,375.683 410.016,380.408C410.016,385.133 406.185,388.964 401.46,388.964C396.735,388.964 392.904,385.133 392.904,380.408C392.904,375.683 396.735,371.853 401.46,371.853Z" style="fill:rgb(27,22,22);fill-rule:nonzero;"/>
                <path d="M423.379,371.853C428.104,371.853 431.935,375.683 431.935,380.408C431.935,385.133 428.104,388.964 423.379,388.964C418.654,388.964 414.824,385.133 414.824,380.408C414.824,375.683 418.654,371.853 423.379,371.853Z" style="fill:rgb(27,22,22);fill-rule:nonzero;"/>
                <path d="M445.298,371.853C450.023,371.853 453.854,375.683 453.854,380.408C453.854,385.133 450.023,388.964 445.298,388.964C440.573,388.964 436.743,385.133 436.743,380.408C436.743,375.683 440.573,371.853 445.298,371.853Z" style="fill:rgb(27,22,22);fill-rule:nonzero;"/>
                <path d="M269.953,393.763C274.678,393.763 278.509,397.594 278.509,402.319C278.509,407.044 274.678,410.875 269.953,410.875C265.228,410.875 261.397,407.044 261.397,402.319C261.397,397.594 265.228,393.763 269.953,393.763Z" style="fill:rgb(27,22,22);fill-rule:nonzero;"/>
                <path d="M291.872,393.763C296.598,393.763 300.428,397.594 300.428,402.319C300.428,407.044 296.598,410.875 291.872,410.875C287.147,410.875 283.316,407.044 283.316,402.319C283.316,397.594 287.147,393.763 291.872,393.763Z" style="fill:rgb(27,22,22);fill-rule:nonzero;"/>
                <path d="M313.783,393.763C318.508,393.763 322.339,397.594 322.339,402.319C322.339,407.044 318.508,410.875 313.783,410.875C309.058,410.875 305.228,407.044 305.228,402.319C305.228,397.594 309.058,393.763 313.783,393.763Z" style="fill:rgb(27,22,22);fill-rule:nonzero;"/>
                <path d="M335.702,393.763C340.427,393.763 344.258,397.594 344.258,402.319C344.258,407.044 340.427,410.875 335.702,410.875C330.977,410.875 327.146,407.044 327.146,402.319C327.146,397.594 330.977,393.763 335.702,393.763Z" style="fill:rgb(27,22,22);fill-rule:nonzero;"/>
                <path d="M357.622,393.763C362.347,393.763 366.177,397.594 366.177,402.319C366.177,407.044 362.347,410.875 357.622,410.875C352.896,410.875 349.066,407.044 349.066,402.319C349.066,397.594 352.896,393.763 357.622,393.763Z" style="fill:rgb(27,22,22);fill-rule:nonzero;"/>
                <path d="M379.541,393.763C384.266,393.763 388.096,397.594 388.096,402.319C388.096,407.044 384.266,410.875 379.541,410.875C374.815,410.875 370.985,407.044 370.985,402.319C370.985,397.594 374.815,393.763 379.541,393.763Z" style="fill:rgb(27,22,22);fill-rule:nonzero;"/>
                <path d="M401.46,393.763C406.185,393.763 410.016,397.594 410.016,402.319C410.016,407.044 406.185,410.875 401.46,410.875C396.735,410.875 392.904,407.044 392.904,402.319C392.904,397.594 396.735,393.763 401.46,393.763Z" style="fill:rgb(27,22,22);fill-rule:nonzero;"/>
                <path d="M423.379,393.763C428.104,393.763 431.935,397.594 431.935,402.319C431.935,407.044 428.104,410.875 423.379,410.875C418.654,410.875 414.824,407.044 414.824,402.319C414.824,397.594 418.654,393.763 423.379,393.763Z" style="fill:rgb(27,22,22);fill-rule:nonzero;"/>
                <path d="M269.953,415.691C274.678,415.691 278.509,419.521 278.509,424.247C278.509,428.972 274.678,432.802 269.953,432.802C265.228,432.802 261.397,428.972 261.397,424.247C261.397,419.521 265.228,415.691 269.953,415.691Z" style="fill:rgb(27,22,22);fill-rule:nonzero;"/>
                <path d="M291.872,415.691C296.598,415.691 300.428,419.521 300.428,424.247C300.428,428.972 296.598,432.802 291.872,432.802C287.147,432.802 283.316,428.972 283.316,424.247C283.316,419.521 287.147,415.691 291.872,415.691Z" style="fill:rgb(27,22,22);fill-rule:nonzero;"/>
                <path d="M313.783,415.691C318.508,415.691 322.339,419.521 322.339,424.247C322.339,428.972 318.508,432.802 313.783,432.802C309.058,432.802 305.228,428.972 305.228,424.247C305.228,419.521 309.058,415.691 313.783,415.691Z" style="fill:rgb(27,22,22);fill-rule:nonzero;"/>
                <path d="M335.702,415.691C340.427,415.691 344.258,419.521 344.258,424.247C344.258,428.972 340.427,432.802 335.702,432.802C330.977,432.802 327.146,428.972 327.146,424.247C327.146,419.521 330.977,415.691 335.702,415.691Z" style="fill:rgb(27,22,22);fill-rule:nonzero;"/>
                <path d="M357.622,415.691C362.347,415.691 366.177,419.521 366.177,424.247C366.177,428.972 362.347,432.802 357.622,432.802C352.896,432.802 349.066,428.972 349.066,424.247C349.066,419.521 352.896,415.691 357.622,415.691Z" style="fill:rgb(27,22,22);fill-rule:nonzero;"/>
                <path d="M379.541,415.691C384.266,415.691 388.096,419.521 388.096,424.247C388.096,428.972 384.266,432.802 379.541,432.802C374.815,432.802 370.985,428.972 370.985,424.247C370.985,419.521 374.815,415.691 379.541,415.691Z" style="fill:rgb(27,22,22);fill-rule:nonzero;"/>
                <path d="M401.46,415.691C406.185,415.691 410.016,419.521 410.016,424.247C410.016,428.972 406.185,432.802 401.46,432.802C396.735,432.802 392.904,428.972 392.904,424.247C392.904,419.521 396.735,415.691 401.46,415.691Z" style="fill:rgb(27,22,22);fill-rule:nonzero;"/>
                <path d="M423.379,415.691C428.104,415.691 431.935,419.521 431.935,424.247C431.935,428.972 428.104,432.802 423.379,432.802C418.654,432.802 414.824,428.972 414.824,424.247C414.824,419.521 418.654,415.691 423.379,415.691Z" style="fill:rgb(27,22,22);fill-rule:nonzero;"/>
                <path d="M313.783,437.602C318.508,437.602 322.339,441.432 322.339,446.157C322.339,450.882 318.508,454.713 313.783,454.713C309.058,454.713 305.228,450.882 305.228,446.157C305.228,441.432 309.058,437.602 313.783,437.602Z" style="fill:rgb(27,22,22);fill-rule:nonzero;"/>
                <path d="M335.702,437.602C340.427,437.602 344.258,441.432 344.258,446.157C344.258,450.882 340.427,454.713 335.702,454.713C330.977,454.713 327.146,450.882 327.146,446.157C327.146,441.432 330.977,437.602 335.702,437.602Z" style="fill:rgb(27,22,22);fill-rule:nonzero;"/>
                <path d="M357.622,437.602C362.347,437.602 366.177,441.432 366.177,446.157C366.177,450.882 362.347,454.713 357.622,454.713C352.896,454.713 349.066,450.882 349.066,446.157C349.066,441.432 352.896,437.602 357.622,437.602Z" style="fill:rgb(27,22,22);fill-rule:nonzero;"/>
                <path d="M379.541,437.602C384.266,437.602 388.096,441.432 388.096,446.157C388.096,450.882 384.266,454.713 379.541,454.713C374.815,454.713 370.985,450.882 370.985,446.157C370.985,441.432 374.815,437.602 379.541,437.602Z" style="fill:rgb(27,22,22);fill-rule:nonzero;"/>
                <path d="M401.46,437.602C406.185,437.602 410.016,441.432 410.016,446.157C410.016,450.882 406.185,454.713 401.46,454.713C396.735,454.713 392.904,450.882 392.904,446.157C392.904,441.432 396.735,437.602 401.46,437.602Z" style="fill:rgb(27,22,22);fill-rule:nonzero;"/>
                <path d="M423.379,437.602C428.104,437.602 431.935,441.432 431.935,446.157C431.935,450.882 428.104,454.713 423.379,454.713C418.654,454.713 414.824,450.882 414.824,446.157C414.824,441.432 418.654,437.602 423.379,437.602Z" style="fill:rgb(27,22,22);fill-rule:nonzero;"/>
                <path d="M269.953,459.521C274.678,459.521 278.509,463.351 278.509,468.076C278.509,472.802 274.678,476.632 269.953,476.632C265.228,476.632 261.397,472.802 261.397,468.076C261.397,463.351 265.228,459.521 269.953,459.521Z" style="fill:rgb(27,22,22);fill-rule:nonzero;"/>
                <path d="M313.783,459.521C318.508,459.521 322.339,463.351 322.339,468.076C322.339,472.802 318.508,476.632 313.783,476.632C309.058,476.632 305.228,472.802 305.228,468.076C305.228,463.351 309.058,459.521 313.783,459.521Z" style="fill:rgb(27,22,22);fill-rule:nonzero;"/>
                <path d="M335.702,459.521C340.427,459.521 344.258,463.351 344.258,468.076C344.258,472.802 340.427,476.632 335.702,476.632C330.977,476.632 327.146,472.802 327.146,468.076C327.146,463.351 330.977,459.521 335.702,459.521Z" style="fill:rgb(27,22,22);fill-rule:nonzero;"/>
                <path d="M357.622,459.521C362.347,459.521 366.177,463.351 366.177,468.076C366.177,472.802 362.347,476.632 357.622,476.632C352.896,476.632 349.066,472.802 349.066,468.076C349.066,463.351 352.896,459.521 357.622,459.521Z" style="fill:rgb(27,22,22);fill-rule:nonzero;"/>
                <path d="M379.541,459.521C384.266,459.521 388.096,463.351 388.096,468.076C388.096,472.802 384.266,476.632 379.541,476.632C374.815,476.632 370.985,472.802 370.985,468.076C370.985,463.351 374.815,459.521 379.541,459.521Z" style="fill:rgb(27,22,22);fill-rule:nonzero;"/>
                <path d="M401.46,459.521C406.185,459.521 410.016,463.351 410.016,468.076C410.016,472.802 406.185,476.632 401.46,476.632C396.735,476.632 392.904,472.802 392.904,468.076C392.904,463.351 396.735,459.521 401.46,459.521Z" style="fill:rgb(27,22,22);fill-rule:nonzero;"/>
                <path d="M423.379,459.521C428.104,459.521 431.935,463.351 431.935,468.076C431.935,472.802 428.104,476.632 423.379,476.632C418.654,476.632 414.824,472.802 414.824,468.076C414.824,463.351 418.654,459.521 423.379,459.521Z" style="fill:rgb(27,22,22);fill-rule:nonzero;"/>
                <path d="M445.298,459.521C450.023,459.521 453.854,463.351 453.854,468.076C453.854,472.802 450.023,476.632 445.298,476.632C440.573,476.632 436.743,472.802 436.743,468.076C436.743,463.351 440.573,459.521 445.298,459.521Z" style="fill:rgb(27,22,22);fill-rule:nonzero;"/>
                <path d="M269.953,481.44C274.678,481.44 278.509,485.271 278.509,489.996C278.509,494.721 274.678,498.552 269.953,498.552C265.228,498.552 261.397,494.721 261.397,489.996C261.397,485.271 265.228,481.44 269.953,481.44Z" style="fill:rgb(27,22,22);fill-rule:nonzero;"/>
                <path d="M291.872,481.44C296.598,481.44 300.428,485.271 300.428,489.996C300.428,494.721 296.598,498.552 291.872,498.552C287.147,498.552 283.316,494.721 283.316,489.996C283.316,485.271 287.147,481.44 291.872,481.44Z" style="fill:rgb(27,22,22);fill-rule:nonzero;"/>
                <path d="M313.783,481.44C318.508,481.44 322.339,485.271 322.339,489.996C322.339,494.721 318.508,498.552 313.783,498.552C309.058,498.552 305.228,494.721 305.228,489.996C305.228,485.271 309.058,481.44 313.783,481.44Z" style="fill:rgb(27,22,22);fill-rule:nonzero;"/>
                <path d="M335.702,481.44C340.427,481.44 344.258,485.271 344.258,489.996C344.258,494.721 340.427,498.552 335.702,498.552C330.977,498.552 327.146,494.721 327.146,489.996C327.146,485.271 330.977,481.44 335.702,481.44Z" style="fill:rgb(27,22,22);fill-rule:nonzero;"/>
                <path d="M357.622,481.44C362.347,481.44 366.177,485.271 366.177,489.996C366.177,494.721 362.347,498.552 357.622,498.552C352.896,498.552 349.066,494.721 349.066,489.996C349.066,485.271 352.896,481.44 357.622,481.44Z" style="fill:rgb(27,22,22);fill-rule:nonzero;"/>
                <path d="M379.541,481.44C384.266,481.44 388.096,485.271 388.096,489.996C388.096,494.721 384.266,498.552 379.541,498.552C374.815,498.552 370.985,494.721 370.985,489.996C370.985,485.271 374.815,481.44 379.541,481.44Z" style="fill:rgb(27,22,22);fill-rule:nonzero;"/>
                <path d="M401.46,481.44C406.185,481.44 410.016,485.271 410.016,489.996C410.016,494.721 406.185,498.552 401.46,498.552C396.735,498.552 392.904,494.721 392.904,489.996C392.904,485.271 396.735,481.44 401.46,481.44Z" style="fill:rgb(27,22,22);fill-rule:nonzero;"/>
                <path d="M423.379,481.44C428.104,481.44 431.935,485.271 431.935,489.996C431.935,494.721 428.104,498.552 423.379,498.552C418.654,498.552 414.824,494.721 414.824,489.996C414.824,485.271 418.654,481.44 423.379,481.44Z" style="fill:rgb(27,22,22);fill-rule:nonzero;"/>
                <path d="M445.298,481.44C450.023,481.44 453.854,485.271 453.854,489.996C453.854,494.721 450.023,498.552 445.298,498.552C440.573,498.552 436.743,494.721 436.743,489.996C436.743,485.271 440.573,481.44 445.298,481.44Z" style="fill:rgb(27,22,22);fill-rule:nonzero;"/>
                <path d="M467.218,481.44C471.943,481.44 475.773,485.271 475.773,489.996C475.773,494.721 471.943,498.552 467.218,498.552C462.493,498.552 458.662,494.721 458.662,489.996C458.662,485.271 462.493,481.44 467.218,481.44Z" style="fill:rgb(27,22,22);fill-rule:nonzero;"/>
                <path d="M226.115,503.359C230.84,503.359 234.67,507.189 234.67,511.915C234.67,516.64 230.84,520.471 226.115,520.471C221.389,520.471 217.559,516.64 217.559,511.915C217.559,507.189 221.389,503.359 226.115,503.359Z" style="fill:rgb(27,22,22);fill-rule:nonzero;"/>
                <path d="M291.872,503.359C296.598,503.359 300.428,507.189 300.428,511.915C300.428,516.64 296.598,520.471 291.872,520.471C287.147,520.471 283.316,516.64 283.316,511.915C283.316,507.189 287.147,503.359 291.872,503.359Z" style="fill:rgb(27,22,22);fill-rule:nonzero;"/>
                <path d="M335.702,503.359C340.427,503.359 344.258,507.189 344.258,511.915C344.258,516.64 340.427,520.471 335.702,520.471C330.977,520.471 327.146,516.64 327.146,511.915C327.146,507.189 330.977,503.359 335.702,503.359Z" style="fill:rgb(27,22,22);fill-rule:nonzero;"/>
                <path d="M357.622,503.359C362.347,503.359 366.177,507.189 366.177,511.915C366.177,516.64 362.347,520.471 357.622,520.471C352.896,520.471 349.066,516.64 349.066,511.915C349.066,507.189 352.896,503.359 357.622,503.359Z" style="fill:rgb(27,22,22);fill-rule:nonzero;"/>
                <path d="M379.541,503.359C384.266,503.359 388.096,507.189 388.096,511.915C388.096,516.64 384.266,520.471 379.541,520.471C374.815,520.471 370.985,516.64 370.985,511.915C370.985,507.189 374.815,503.359 379.541,503.359Z" style="fill:rgb(27,22,22);fill-rule:nonzero;"/>
                <path d="M401.46,503.359C406.185,503.359 410.016,507.189 410.016,511.915C410.016,516.64 406.185,520.471 401.46,520.471C396.735,520.471 392.904,516.64 392.904,511.915C392.904,507.189 396.735,503.359 401.46,503.359Z" style="fill:rgb(27,22,22);fill-rule:nonzero;"/>
                <path d="M423.379,503.359C428.104,503.359 431.935,507.189 431.935,511.915C431.935,516.64 428.104,520.471 423.379,520.471C418.654,520.471 414.824,516.64 414.824,511.915C414.824,507.189 418.654,503.359 423.379,503.359Z" style="fill:rgb(27,22,22);fill-rule:nonzero;"/>
                <path d="M445.298,503.359C450.023,503.359 453.854,507.189 453.854,511.915C453.854,516.64 450.023,520.471 445.298,520.471C440.573,520.471 436.743,516.64 436.743,511.915C436.743,507.189 440.573,503.359 445.298,503.359Z" style="fill:rgb(27,22,22);fill-rule:nonzero;"/>
                <path d="M467.218,503.359C471.943,503.359 475.773,507.189 475.773,511.915C475.773,516.64 471.943,520.471 467.218,520.471C462.493,520.471 458.662,516.64 458.662,511.915C458.662,507.189 462.493,503.359 467.218,503.359Z" style="fill:rgb(27,22,22);fill-rule:nonzero;"/>
                <path d="M182.276,525.27C187.001,525.27 190.832,529.101 190.832,533.825C190.832,538.551 187.001,542.381 182.276,542.381C177.551,542.381 173.72,538.551 173.72,533.825C173.72,529.101 177.551,525.27 182.276,525.27Z" style="fill:rgb(27,22,22);fill-rule:nonzero;"/>
                <path d="M204.195,525.27C208.92,525.27 212.751,529.101 212.751,533.825C212.751,538.551 208.92,542.381 204.195,542.381C199.47,542.381 195.64,538.551 195.64,533.825C195.64,529.101 199.47,525.27 204.195,525.27Z" style="fill:rgb(27,22,22);fill-rule:nonzero;"/>
                <path d="M226.115,525.27C230.84,525.27 234.67,529.101 234.67,533.825C234.67,538.551 230.84,542.381 226.115,542.381C221.389,542.381 217.559,538.551 217.559,533.825C217.559,529.101 221.389,525.27 226.115,525.27Z" style="fill:rgb(27,22,22);fill-rule:nonzero;"/>
                <path d="M248.034,525.27C252.759,525.27 256.588,529.101 256.588,533.825C256.588,538.551 252.759,542.381 248.034,542.381C243.309,542.381 239.478,538.551 239.478,533.825C239.478,529.101 243.309,525.27 248.034,525.27Z" style="fill:rgb(27,22,22);fill-rule:nonzero;"/>
                <path d="M269.953,525.27C274.678,525.27 278.509,529.101 278.509,533.825C278.509,538.551 274.678,542.381 269.953,542.381C265.228,542.381 261.397,538.551 261.397,533.825C261.397,529.101 265.228,525.27 269.953,525.27Z" style="fill:rgb(27,22,22);fill-rule:nonzero;"/>
                <path d="M335.702,525.27C340.427,525.27 344.258,529.101 344.258,533.825C344.258,538.551 340.427,542.381 335.702,542.381C330.977,542.381 327.146,538.551 327.146,533.825C327.146,529.101 330.977,525.27 335.702,525.27Z" style="fill:rgb(27,22,22);fill-rule:nonzero;"/>
                <path d="M357.622,525.27C362.347,525.27 366.177,529.101 366.177,533.825C366.177,538.551 362.347,542.381 357.622,542.381C352.896,542.381 349.066,538.551 349.066,533.825C349.066,529.101 352.896,525.27 357.622,525.27Z" style="fill:rgb(27,22,22);fill-rule:nonzero;"/>
                <path d="M379.541,525.27C384.266,525.27 388.096,529.101 388.096,533.825C388.096,538.551 384.266,542.381 379.541,542.381C374.815,542.381 370.985,538.551 370.985,533.825C370.985,529.101 374.815,525.27 379.541,525.27Z" style="fill:rgb(27,22,22);fill-rule:nonzero;"/>
                <path d="M401.46,525.27C406.185,525.27 410.016,529.101 410.016,533.825C410.016,538.551 406.185,542.381 401.46,542.381C396.735,542.381 392.904,538.551 392.904,533.825C392.904,529.101 396.735,525.27 401.46,525.27Z" style="fill:rgb(27,22,22);fill-rule:nonzero;"/>
                <path d="M423.379,525.27C428.104,525.27 431.935,529.101 431.935,533.825C431.935,538.551 428.104,542.381 423.379,542.381C418.654,542.381 414.824,538.551 414.824,533.825C414.824,529.101 418.654,525.27 423.379,525.27Z" style="fill:rgb(27,22,22);fill-rule:nonzero;"/>
                <path d="M445.298,525.27C450.023,525.27 453.854,529.101 453.854,533.825C453.854,538.551 450.023,542.381 445.298,542.381C440.573,542.381 436.743,538.551 436.743,533.825C436.743,529.101 440.573,525.27 445.298,525.27Z" style="fill:rgb(27,22,22);fill-rule:nonzero;"/>
                <path d="M467.218,525.27C471.943,525.27 475.773,529.101 475.773,533.825C475.773,538.551 471.943,542.381 467.218,542.381C462.493,542.381 458.662,538.551 458.662,533.825C458.662,529.101 462.493,525.27 467.218,525.27Z" style="fill:rgb(27,22,22);fill-rule:nonzero;"/>
                <path d="M182.276,547.198C187.001,547.198 190.832,551.028 190.832,555.754C190.832,560.479 187.001,564.31 182.276,564.31C177.551,564.31 173.72,560.479 173.72,555.754C173.72,551.028 177.551,547.198 182.276,547.198Z" style="fill:rgb(27,22,22);fill-rule:nonzero;"/>
                <path d="M204.195,547.198C208.92,547.198 212.751,551.028 212.751,555.754C212.751,560.479 208.92,564.31 204.195,564.31C199.47,564.31 195.64,560.479 195.64,555.754C195.64,551.028 199.47,547.198 204.195,547.198Z" style="fill:rgb(27,22,22);fill-rule:nonzero;"/>
                <path d="M226.115,547.198C230.84,547.198 234.67,551.028 234.67,555.754C234.67,560.479 230.84,564.31 226.115,564.31C221.389,564.31 217.559,560.479 217.559,555.754C217.559,551.028 221.389,547.198 226.115,547.198Z" style="fill:rgb(27,22,22);fill-rule:nonzero;"/>
                <path d="M248.034,547.198C252.759,547.198 256.588,551.028 256.588,555.754C256.588,560.479 252.759,564.31 248.034,564.31C243.309,564.31 239.478,560.479 239.478,555.754C239.478,551.028 243.309,547.198 248.034,547.198Z" style="fill:rgb(27,22,22);fill-rule:nonzero;"/>
                <path d="M269.953,547.198C274.678,547.198 278.509,551.028 278.509,555.754C278.509,560.479 274.678,564.31 269.953,564.31C265.228,564.31 261.397,560.479 261.397,555.754C261.397,551.028 265.228,547.198 269.953,547.198Z" style="fill:rgb(27,22,22);fill-rule:nonzero;"/>
                <path d="M291.872,547.198C296.598,547.198 300.428,551.028 300.428,555.754C300.428,560.479 296.598,564.31 291.872,564.31C287.147,564.31 283.316,560.479 283.316,555.754C283.316,551.028 287.147,547.198 291.872,547.198Z" style="fill:rgb(27,22,22);fill-rule:nonzero;"/>
                <path d="M401.46,547.198C406.185,547.198 410.016,551.028 410.016,555.754C410.016,560.479 406.185,564.31 401.46,564.31C396.735,564.31 392.904,560.479 392.904,555.754C392.904,551.028 396.735,547.198 401.46,547.198Z" style="fill:rgb(27,22,22);fill-rule:nonzero;"/>
                <path d="M423.379,547.198C428.104,547.198 431.935,551.028 431.935,555.754C431.935,560.479 428.104,564.31 423.379,564.31C418.654,564.31 414.824,560.479 414.824,555.754C414.824,551.028 418.654,547.198 423.379,547.198Z" style="fill:rgb(27,22,22);fill-rule:nonzero;"/>
                <path d="M445.298,547.198C450.023,547.198 453.854,551.028 453.854,555.754C453.854,560.479 450.023,564.31 445.298,564.31C440.573,564.31 436.743,560.479 436.743,555.754C436.743,551.028 440.573,547.198 445.298,547.198Z" style="fill:rgb(27,22,22);fill-rule:nonzero;"/>
                <path d="M467.218,547.198C471.943,547.198 475.773,551.028 475.773,555.754C475.773,560.479 471.943,564.31 467.218,564.31C462.493,564.31 458.662,560.479 458.662,555.754C458.662,551.028 462.493,547.198 467.218,547.198Z" style="fill:rgb(27,22,22);fill-rule:nonzero;"/>
                <path d="M489.137,547.198C493.862,547.198 497.693,551.028 497.693,555.754C497.693,560.479 493.862,564.31 489.137,564.31C484.412,564.31 480.582,560.479 480.582,555.754C480.582,551.028 484.412,547.198 489.137,547.198Z" style="fill:rgb(27,22,22);fill-rule:nonzero;"/>
                <path d="M182.276,569.108C187.001,569.108 190.832,572.938 190.832,577.664C190.832,582.39 187.001,586.22 182.276,586.22C177.551,586.22 173.72,582.39 173.72,577.664C173.72,572.938 177.551,569.108 182.276,569.108Z" style="fill:rgb(27,22,22);fill-rule:nonzero;"/>
                <path d="M204.195,569.108C208.92,569.108 212.751,572.938 212.751,577.664C212.751,582.39 208.92,586.22 204.195,586.22C199.47,586.22 195.64,582.39 195.64,577.664C195.64,572.938 199.47,569.108 204.195,569.108Z" style="fill:rgb(27,22,22);fill-rule:nonzero;"/>
                <path d="M226.115,569.108C230.84,569.108 234.67,572.938 234.67,577.664C234.67,582.39 230.84,586.22 226.115,586.22C221.389,586.22 217.559,582.39 217.559,577.664C217.559,572.938 221.389,569.108 226.115,569.108Z" style="fill:rgb(27,22,22);fill-rule:nonzero;"/>
                <path d="M248.034,569.108C252.759,569.108 256.588,572.938 256.588,577.664C256.588,582.39 252.759,586.22 248.034,586.22C243.309,586.22 239.478,582.39 239.478,577.664C239.478,572.938 243.309,569.108 248.034,569.108Z" style="fill:rgb(27,22,22);fill-rule:nonzero;"/>
                <path d="M269.953,569.108C274.678,569.108 278.509,572.938 278.509,577.664C278.509,582.39 274.678,586.22 269.953,586.22C265.228,586.22 261.397,582.39 261.397,577.664C261.397,572.938 265.228,569.108 269.953,569.108Z" style="fill:rgb(27,22,22);fill-rule:nonzero;"/>
                <path d="M291.872,569.108C296.598,569.108 300.428,572.938 300.428,577.664C300.428,582.39 296.598,586.22 291.872,586.22C287.147,586.22 283.316,582.39 283.316,577.664C283.316,572.938 287.147,569.108 291.872,569.108Z" style="fill:rgb(27,22,22);fill-rule:nonzero;"/>
                <path d="M401.46,569.108C406.185,569.108 410.016,572.938 410.016,577.664C410.016,582.39 406.185,586.22 401.46,586.22C396.735,586.22 392.904,582.39 392.904,577.664C392.904,572.938 396.735,569.108 401.46,569.108Z" style="fill:rgb(27,22,22);fill-rule:nonzero;"/>
                <path d="M423.379,569.108C428.104,569.108 431.935,572.938 431.935,577.664C431.935,582.39 428.104,586.22 423.379,586.22C418.654,586.22 414.824,582.39 414.824,577.664C414.824,572.938 418.654,569.108 423.379,569.108Z" style="fill:rgb(27,22,22);fill-rule:nonzero;"/>
                <path d="M445.298,569.108C450.023,569.108 453.854,572.938 453.854,577.664C453.854,582.39 450.023,586.22 445.298,586.22C440.573,586.22 436.743,582.39 436.743,577.664C436.743,572.938 440.573,569.108 445.298,569.108Z" style="fill:rgb(27,22,22);fill-rule:nonzero;"/>
                <path d="M467.218,569.108C471.943,569.108 475.773,572.938 475.773,577.664C475.773,582.39 471.943,586.22 467.218,586.22C462.493,586.22 458.662,582.39 458.662,577.664C458.662,572.938 462.493,569.108 467.218,569.108Z" style="fill:rgb(27,22,22);fill-rule:nonzero;"/>
                <path d="M489.137,569.108C493.862,569.108 497.693,572.938 497.693,577.664C497.693,582.39 493.862,586.22 489.137,586.22C484.412,586.22 480.582,582.39 480.582,577.664C480.582,572.938 484.412,569.108 489.137,569.108Z" style="fill:rgb(27,22,22);fill-rule:nonzero;"/>
                <path d="M511.056,569.108C515.781,569.108 519.612,572.938 519.612,577.664C519.612,582.39 515.781,586.22 511.056,586.22C506.331,586.22 502.5,582.39 502.5,577.664C502.5,572.938 506.331,569.108 511.056,569.108Z" style="fill:rgb(27,22,22);fill-rule:nonzero;"/>
                <path d="M116.527,591.027C121.252,591.027 125.083,594.858 125.083,599.583C125.083,604.309 121.252,608.139 116.527,608.139C111.802,608.139 107.971,604.309 107.971,599.583C107.971,594.858 111.802,591.027 116.527,591.027Z" style="fill:rgb(27,22,22);fill-rule:nonzero;"/>
                <path d="M138.438,591.027C143.163,591.027 146.993,594.858 146.993,599.583C146.993,604.309 143.163,608.139 138.438,608.139C133.712,608.139 129.882,604.309 129.882,599.583C129.882,594.858 133.712,591.027 138.438,591.027Z" style="fill:rgb(27,22,22);fill-rule:nonzero;"/>
                <path d="M160.357,591.027C165.082,591.027 168.913,594.858 168.913,599.583C168.913,604.309 165.082,608.139 160.357,608.139C155.632,608.139 151.801,604.309 151.801,599.583C151.801,594.858 155.632,591.027 160.357,591.027Z" style="fill:rgb(27,22,22);fill-rule:nonzero;"/>
                <path d="M182.276,591.027C187.001,591.027 190.832,594.858 190.832,599.583C190.832,604.309 187.001,608.139 182.276,608.139C177.551,608.139 173.72,604.309 173.72,599.583C173.72,594.858 177.551,591.027 182.276,591.027Z" style="fill:rgb(27,22,22);fill-rule:nonzero;"/>
                <path d="M204.195,591.027C208.92,591.027 212.751,594.858 212.751,599.583C212.751,604.309 208.92,608.139 204.195,608.139C199.47,608.139 195.64,604.309 195.64,599.583C195.64,594.858 199.47,591.027 204.195,591.027Z" style="fill:rgb(27,22,22);fill-rule:nonzero;"/>
                <path d="M226.115,591.027C230.84,591.027 234.67,594.858 234.67,599.583C234.67,604.309 230.84,608.139 226.115,608.139C221.389,608.139 217.559,604.309 217.559,599.583C217.559,594.858 221.389,591.027 226.115,591.027Z" style="fill:rgb(27,22,22);fill-rule:nonzero;"/>
                <path d="M248.034,591.027C252.759,591.027 256.588,594.858 256.588,599.583C256.588,604.309 252.759,608.139 248.034,608.139C243.309,608.139 239.478,604.309 239.478,599.583C239.478,594.858 243.309,591.027 248.034,591.027Z" style="fill:rgb(27,22,22);fill-rule:nonzero;"/>
                <path d="M269.953,591.027C274.678,591.027 278.509,594.858 278.509,599.583C278.509,604.309 274.678,608.139 269.953,608.139C265.228,608.139 261.397,604.309 261.397,599.583C261.397,594.858 265.228,591.027 269.953,591.027Z" style="fill:rgb(27,22,22);fill-rule:nonzero;"/>
                <path d="M401.46,591.027C406.185,591.027 410.016,594.858 410.016,599.583C410.016,604.309 406.185,608.139 401.46,608.139C396.735,608.139 392.904,604.309 392.904,599.583C392.904,594.858 396.735,591.027 401.46,591.027Z" style="fill:rgb(27,22,22);fill-rule:nonzero;"/>
                <path d="M423.379,591.027C428.104,591.027 431.935,594.858 431.935,599.583C431.935,604.309 428.104,608.139 423.379,608.139C418.654,608.139 414.824,604.309 414.824,599.583C414.824,594.858 418.654,591.027 423.379,591.027Z" style="fill:rgb(27,22,22);fill-rule:nonzero;"/>
                <path d="M445.298,591.027C450.023,591.027 453.854,594.858 453.854,599.583C453.854,604.309 450.023,608.139 445.298,608.139C440.573,608.139 436.743,604.309 436.743,599.583C436.743,594.858 440.573,591.027 445.298,591.027Z" style="fill:rgb(27,22,22);fill-rule:nonzero;"/>
                <path d="M467.218,591.027C471.943,591.027 475.773,594.858 475.773,599.583C475.773,604.309 471.943,608.139 467.218,608.139C462.493,608.139 458.662,604.309 458.662,599.583C458.662,594.858 462.493,591.027 467.218,591.027Z" style="fill:rgb(27,22,22);fill-rule:nonzero;"/>
                <path d="M489.137,591.027C493.862,591.027 497.693,594.858 497.693,599.583C497.693,604.309 493.862,608.139 489.137,608.139C484.412,608.139 480.582,604.309 480.582,599.583C480.582,594.858 484.412,591.027 489.137,591.027Z" style="fill:rgb(27,22,22);fill-rule:nonzero;"/>
                <path d="M511.056,591.027C515.781,591.027 519.612,594.858 519.612,599.583C519.612,604.309 515.781,608.139 511.056,608.139C506.331,608.139 502.5,604.309 502.5,599.583C502.5,594.858 506.331,591.027 511.056,591.027Z" style="fill:rgb(27,22,22);fill-rule:nonzero;"/>
                <path d="M532.976,591.027C537.701,591.027 541.531,594.858 541.531,599.583C541.531,604.309 537.701,608.139 532.976,608.139C528.25,608.139 524.42,604.309 524.42,599.583C524.42,594.858 528.25,591.027 532.976,591.027Z" style="fill:rgb(27,22,22);fill-rule:nonzero;"/>
                <path d="M116.527,612.947C121.252,612.947 125.083,616.777 125.083,621.503C125.083,626.228 121.252,630.059 116.527,630.059C111.802,630.059 107.971,626.228 107.971,621.503C107.971,616.777 111.802,612.947 116.527,612.947Z" style="fill:rgb(27,22,22);fill-rule:nonzero;"/>
                <path d="M138.438,612.947C143.163,612.947 146.993,616.777 146.993,621.503C146.993,626.228 143.163,630.059 138.438,630.059C133.712,630.059 129.882,626.228 129.882,621.503C129.882,616.777 133.712,612.947 138.438,612.947Z" style="fill:rgb(27,22,22);fill-rule:nonzero;"/>
                <path d="M160.357,612.947C165.082,612.947 168.913,616.777 168.913,621.503C168.913,626.228 165.082,630.059 160.357,630.059C155.632,630.059 151.801,626.228 151.801,621.503C151.801,616.777 155.632,612.947 160.357,612.947Z" style="fill:rgb(27,22,22);fill-rule:nonzero;"/>
                <path d="M182.276,612.947C187.001,612.947 190.832,616.777 190.832,621.503C190.832,626.228 187.001,630.059 182.276,630.059C177.551,630.059 173.72,626.228 173.72,621.503C173.72,616.777 177.551,612.947 182.276,612.947Z" style="fill:rgb(27,22,22);fill-rule:nonzero;"/>
                <path d="M204.195,612.947C208.92,612.947 212.751,616.777 212.751,621.503C212.751,626.228 208.92,630.059 204.195,630.059C199.47,630.059 195.64,626.228 195.64,621.503C195.64,616.777 199.47,612.947 204.195,612.947Z" style="fill:rgb(27,22,22);fill-rule:nonzero;"/>
                <path d="M226.115,612.947C230.84,612.947 234.67,616.777 234.67,621.503C234.67,626.228 230.84,630.059 226.115,630.059C221.389,630.059 217.559,626.228 217.559,621.503C217.559,616.777 221.389,612.947 226.115,612.947Z" style="fill:rgb(27,22,22);fill-rule:nonzero;"/>
                <path d="M248.034,612.947C252.759,612.947 256.588,616.777 256.588,621.503C256.588,626.228 252.759,630.059 248.034,630.059C243.309,630.059 239.478,626.228 239.478,621.503C239.478,616.777 243.309,612.947 248.034,612.947Z" style="fill:rgb(27,22,22);fill-rule:nonzero;"/>
                <path d="M423.379,612.947C428.104,612.947 431.935,616.777 431.935,621.503C431.935,626.228 428.104,630.059 423.379,630.059C418.654,630.059 414.824,626.228 414.824,621.503C414.824,616.777 418.654,612.947 423.379,612.947Z" style="fill:rgb(27,22,22);fill-rule:nonzero;"/>
                <path d="M445.298,612.947C450.023,612.947 453.854,616.777 453.854,621.503C453.854,626.228 450.023,630.059 445.298,630.059C440.573,630.059 436.743,626.228 436.743,621.503C436.743,616.777 440.573,612.947 445.298,612.947Z" style="fill:rgb(27,22,22);fill-rule:nonzero;"/>
                <path d="M467.218,612.947C471.943,612.947 475.773,616.777 475.773,621.503C475.773,626.228 471.943,630.059 467.218,630.059C462.493,630.059 458.662,626.228 458.662,621.503C458.662,616.777 462.493,612.947 467.218,612.947Z" style="fill:rgb(27,22,22);fill-rule:nonzero;"/>
                <path d="M489.137,612.947C493.862,612.947 497.693,616.777 497.693,621.503C497.693,626.228 493.862,630.059 489.137,630.059C484.412,630.059 480.582,626.228 480.582,621.503C480.582,616.777 484.412,612.947 489.137,612.947Z" style="fill:rgb(27,22,22);fill-rule:nonzero;"/>
                <path d="M511.056,612.947C515.781,612.947 519.612,616.777 519.612,621.503C519.612,626.228 515.781,630.059 511.056,630.059C506.331,630.059 502.5,626.228 502.5,621.503C502.5,616.777 506.331,612.947 511.056,612.947Z" style="fill:rgb(27,22,22);fill-rule:nonzero;"/>
                <path d="M532.976,612.947C537.701,612.947 541.531,616.777 541.531,621.503C541.531,626.228 537.701,630.059 532.976,630.059C528.25,630.059 524.42,626.228 524.42,621.503C524.42,616.777 528.25,612.947 532.976,612.947Z" style="fill:rgb(27,22,22);fill-rule:nonzero;"/>
                <path d="M116.527,634.866C121.252,634.866 125.083,638.696 125.083,643.422C125.083,648.147 121.252,651.978 116.527,651.978C111.802,651.978 107.971,648.147 107.971,643.422C107.971,638.696 111.802,634.866 116.527,634.866Z" style="fill:rgb(27,22,22);fill-rule:nonzero;"/>
                <path d="M138.438,634.866C143.163,634.866 146.993,638.696 146.993,643.422C146.993,648.147 143.163,651.978 138.438,651.978C133.712,651.978 129.882,648.147 129.882,643.422C129.882,638.696 133.712,634.866 138.438,634.866Z" style="fill:rgb(27,22,22);fill-rule:nonzero;"/>
                <path d="M160.357,634.866C165.082,634.866 168.913,638.696 168.913,643.422C168.913,648.147 165.082,651.978 160.357,651.978C155.632,651.978 151.801,648.147 151.801,643.422C151.801,638.696 155.632,634.866 160.357,634.866Z" style="fill:rgb(27,22,22);fill-rule:nonzero;"/>
                <path d="M182.276,634.866C187.001,634.866 190.832,638.696 190.832,643.422C190.832,648.147 187.001,651.978 182.276,651.978C177.551,651.978 173.72,648.147 173.72,643.422C173.72,638.696 177.551,634.866 182.276,634.866Z" style="fill:rgb(27,22,22);fill-rule:nonzero;"/>
                <path d="M204.195,634.866C208.92,634.866 212.751,638.696 212.751,643.422C212.751,648.147 208.92,651.978 204.195,651.978C199.47,651.978 195.64,648.147 195.64,643.422C195.64,638.696 199.47,634.866 204.195,634.866Z" style="fill:rgb(27,22,22);fill-rule:nonzero;"/>
                <path d="M226.115,634.866C230.84,634.866 234.67,638.696 234.67,643.422C234.67,648.147 230.84,651.978 226.115,651.978C221.389,651.978 217.559,648.147 217.559,643.422C217.559,638.696 221.389,634.866 226.115,634.866Z" style="fill:rgb(27,22,22);fill-rule:nonzero;"/>
                <path d="M248.034,634.866C252.759,634.866 256.588,638.696 256.588,643.422C256.588,648.147 252.759,651.978 248.034,651.978C243.309,651.978 239.478,648.147 239.478,643.422C239.478,638.696 243.309,634.866 248.034,634.866Z" style="fill:rgb(27,22,22);fill-rule:nonzero;"/>
                <path d="M269.953,634.866C274.678,634.866 278.509,638.696 278.509,643.422C278.509,648.147 274.678,651.978 269.953,651.978C265.228,651.978 261.397,648.147 261.397,643.422C261.397,638.696 265.228,634.866 269.953,634.866Z" style="fill:rgb(27,22,22);fill-rule:nonzero;"/>
                <path d="M423.379,634.866C428.104,634.866 431.935,638.696 431.935,643.422C431.935,648.147 428.104,651.978 423.379,651.978C418.654,651.978 414.824,648.147 414.824,643.422C414.824,638.696 418.654,634.866 423.379,634.866Z" style="fill:rgb(27,22,22);fill-rule:nonzero;"/>
                <path d="M445.298,634.866C450.023,634.866 453.854,638.696 453.854,643.422C453.854,648.147 450.023,651.978 445.298,651.978C440.573,651.978 436.743,648.147 436.743,643.422C436.743,638.696 440.573,634.866 445.298,634.866Z" style="fill:rgb(27,22,22);fill-rule:nonzero;"/>
                <path d="M467.218,634.866C471.943,634.866 475.773,638.696 475.773,643.422C475.773,648.147 471.943,651.978 467.218,651.978C462.493,651.978 458.662,648.147 458.662,643.422C458.662,638.696 462.493,634.866 467.218,634.866Z" style="fill:rgb(27,22,22);fill-rule:nonzero;"/>
                <path d="M489.137,634.866C493.862,634.866 497.693,638.696 497.693,643.422C497.693,648.147 493.862,651.978 489.137,651.978C484.412,651.978 480.582,648.147 480.582,643.422C480.582,638.696 484.412,634.866 489.137,634.866Z" style="fill:rgb(27,22,22);fill-rule:nonzero;"/>
                <path d="M511.056,634.866C515.781,634.866 519.612,638.696 519.612,643.422C519.612,648.147 515.781,651.978 511.056,651.978C506.331,651.978 502.5,648.147 502.5,643.422C502.5,638.696 506.331,634.866 511.056,634.866Z" style="fill:rgb(27,22,22);fill-rule:nonzero;"/>
                <path d="M532.976,634.866C537.701,634.866 541.531,638.696 541.531,643.422C541.531,648.147 537.701,651.978 532.976,651.978C528.25,651.978 524.42,648.147 524.42,643.422C524.42,638.696 528.25,634.866 532.976,634.866Z" style="fill:rgb(27,22,22);fill-rule:nonzero;"/>
                <path d="M116.527,656.785C121.252,656.785 125.083,660.616 125.083,665.341C125.083,670.066 121.252,673.896 116.527,673.896C111.802,673.896 107.971,670.066 107.971,665.341C107.971,660.616 111.802,656.785 116.527,656.785Z" style="fill:rgb(27,22,22);fill-rule:nonzero;"/>
                <path d="M138.438,656.785C143.163,656.785 146.993,660.616 146.993,665.341C146.993,670.066 143.163,673.896 138.438,673.896C133.712,673.896 129.882,670.066 129.882,665.341C129.882,660.616 133.712,656.785 138.438,656.785Z" style="fill:rgb(27,22,22);fill-rule:nonzero;"/>
                <path d="M160.357,656.785C165.082,656.785 168.913,660.616 168.913,665.341C168.913,670.066 165.082,673.896 160.357,673.896C155.632,673.896 151.801,670.066 151.801,665.341C151.801,660.616 155.632,656.785 160.357,656.785Z" style="fill:rgb(27,22,22);fill-rule:nonzero;"/>
                <path d="M182.276,656.785C187.001,656.785 190.832,660.616 190.832,665.341C190.832,670.066 187.001,673.896 182.276,673.896C177.551,673.896 173.72,670.066 173.72,665.341C173.72,660.616 177.551,656.785 182.276,656.785Z" style="fill:rgb(27,22,22);fill-rule:nonzero;"/>
                <path d="M204.195,656.785C208.92,656.785 212.751,660.616 212.751,665.341C212.751,670.066 208.92,673.896 204.195,673.896C199.47,673.896 195.64,670.066 195.64,665.341C195.64,660.616 199.47,656.785 204.195,656.785Z" style="fill:rgb(27,22,22);fill-rule:nonzero;"/>
                <path d="M226.115,656.785C230.84,656.785 234.67,660.616 234.67,665.341C234.67,670.066 230.84,673.896 226.115,673.896C221.389,673.896 217.559,670.066 217.559,665.341C217.559,660.616 221.389,656.785 226.115,656.785Z" style="fill:rgb(27,22,22);fill-rule:nonzero;"/>
                <path d="M248.034,656.785C252.759,656.785 256.588,660.616 256.588,665.341C256.588,670.066 252.759,673.896 248.034,673.896C243.309,673.896 239.478,670.066 239.478,665.341C239.478,660.616 243.309,656.785 248.034,656.785Z" style="fill:rgb(27,22,22);fill-rule:nonzero;"/>
                <path d="M269.953,656.785C274.678,656.785 278.509,660.616 278.509,665.341C278.509,670.066 274.678,673.896 269.953,673.896C265.228,673.896 261.397,670.066 261.397,665.341C261.397,660.616 265.228,656.785 269.953,656.785Z" style="fill:rgb(27,22,22);fill-rule:nonzero;"/>
                <path d="M357.622,656.785C362.347,656.785 366.177,660.616 366.177,665.341C366.177,670.066 362.347,673.896 357.622,673.896C352.896,673.896 349.066,670.066 349.066,665.341C349.066,660.616 352.896,656.785 357.622,656.785Z" style="fill:rgb(27,22,22);fill-rule:nonzero;"/>
                <path d="M379.541,656.785C384.266,656.785 388.096,660.616 388.096,665.341C388.096,670.066 384.266,673.896 379.541,673.896C374.815,673.896 370.985,670.066 370.985,665.341C370.985,660.616 374.815,656.785 379.541,656.785Z" style="fill:rgb(27,22,22);fill-rule:nonzero;"/>
                <path d="M401.46,656.785C406.185,656.785 410.016,660.616 410.016,665.341C410.016,670.066 406.185,673.896 401.46,673.896C396.735,673.896 392.904,670.066 392.904,665.341C392.904,660.616 396.735,656.785 401.46,656.785Z" style="fill:rgb(27,22,22);fill-rule:nonzero;"/>
                <path d="M423.379,656.785C428.104,656.785 431.935,660.616 431.935,665.341C431.935,670.066 428.104,673.896 423.379,673.896C418.654,673.896 414.824,670.066 414.824,665.341C414.824,660.616 418.654,656.785 423.379,656.785Z" style="fill:rgb(27,22,22);fill-rule:nonzero;"/>
                <path d="M445.298,656.785C450.023,656.785 453.854,660.616 453.854,665.341C453.854,670.066 450.023,673.896 445.298,673.896C440.573,673.896 436.743,670.066 436.743,665.341C436.743,660.616 440.573,656.785 445.298,656.785Z" style="fill:rgb(27,22,22);fill-rule:nonzero;"/>
                <path d="M467.218,656.785C471.943,656.785 475.773,660.616 475.773,665.341C475.773,670.066 471.943,673.896 467.218,673.896C462.493,673.896 458.662,670.066 458.662,665.341C458.662,660.616 462.493,656.785 467.218,656.785Z" style="fill:rgb(27,22,22);fill-rule:nonzero;"/>
                <path d="M489.137,656.785C493.862,656.785 497.693,660.616 497.693,665.341C497.693,670.066 493.862,673.896 489.137,673.896C484.412,673.896 480.582,670.066 480.582,665.341C480.582,660.616 484.412,656.785 489.137,656.785Z" style="fill:rgb(27,22,22);fill-rule:nonzero;"/>
                <path d="M511.056,656.785C515.781,656.785 519.612,660.616 519.612,665.341C519.612,670.066 515.781,673.896 511.056,673.896C506.331,673.896 502.5,670.066 502.5,665.341C502.5,660.616 506.331,656.785 511.056,656.785Z" style="fill:rgb(27,22,22);fill-rule:nonzero;"/>
                <path d="M532.976,656.785C537.701,656.785 541.531,660.616 541.531,665.341C541.531,670.066 537.701,673.896 532.976,673.896C528.25,673.896 524.42,670.066 524.42,665.341C524.42,660.616 528.25,656.785 532.976,656.785Z" style="fill:rgb(27,22,22);fill-rule:nonzero;"/>
                <path d="M554.886,656.785C559.611,656.785 563.442,660.616 563.442,665.341C563.442,670.066 559.611,673.896 554.886,673.896C550.161,673.896 546.331,670.066 546.331,665.341C546.331,660.616 550.161,656.785 554.886,656.785Z" style="fill:rgb(27,22,22);fill-rule:nonzero;"/>
                <path d="M138.438,678.696C143.163,678.696 146.993,682.526 146.993,687.252C146.993,691.977 143.163,695.808 138.438,695.808C133.712,695.808 129.882,691.977 129.882,687.252C129.882,682.526 133.712,678.696 138.438,678.696Z" style="fill:rgb(27,22,22);fill-rule:nonzero;"/>
                <path d="M160.357,678.696C165.082,678.696 168.913,682.526 168.913,687.252C168.913,691.977 165.082,695.808 160.357,695.808C155.632,695.808 151.801,691.977 151.801,687.252C151.801,682.526 155.632,678.696 160.357,678.696Z" style="fill:rgb(27,22,22);fill-rule:nonzero;"/>
                <path d="M182.276,678.696C187.001,678.696 190.832,682.526 190.832,687.252C190.832,691.977 187.001,695.808 182.276,695.808C177.551,695.808 173.72,691.977 173.72,687.252C173.72,682.526 177.551,678.696 182.276,678.696Z" style="fill:rgb(27,22,22);fill-rule:nonzero;"/>
                <path d="M204.195,678.696C208.92,678.696 212.751,682.526 212.751,687.252C212.751,691.977 208.92,695.808 204.195,695.808C199.47,695.808 195.64,691.977 195.64,687.252C195.64,682.526 199.47,678.696 204.195,678.696Z" style="fill:rgb(27,22,22);fill-rule:nonzero;"/>
                <path d="M226.115,678.696C230.84,678.696 234.67,682.526 234.67,687.252C234.67,691.977 230.84,695.808 226.115,695.808C221.389,695.808 217.559,691.977 217.559,687.252C217.559,682.526 221.389,678.696 226.115,678.696Z" style="fill:rgb(27,22,22);fill-rule:nonzero;"/>
                <path d="M248.034,678.696C252.759,678.696 256.588,682.526 256.588,687.252C256.588,691.977 252.759,695.808 248.034,695.808C243.309,695.808 239.478,691.977 239.478,687.252C239.478,682.526 243.309,678.696 248.034,678.696Z" style="fill:rgb(27,22,22);fill-rule:nonzero;"/>
                <path d="M269.953,678.696C274.678,678.696 278.509,682.526 278.509,687.252C278.509,691.977 274.678,695.808 269.953,695.808C265.228,695.808 261.397,691.977 261.397,687.252C261.397,682.526 265.228,678.696 269.953,678.696Z" style="fill:rgb(27,22,22);fill-rule:nonzero;"/>
                <path d="M357.622,678.696C362.347,678.696 366.177,682.526 366.177,687.252C366.177,691.977 362.347,695.808 357.622,695.808C352.896,695.808 349.066,691.977 349.066,687.252C349.066,682.526 352.896,678.696 357.622,678.696Z" style="fill:rgb(27,22,22);fill-rule:nonzero;"/>
                <path d="M379.541,678.696C384.266,678.696 388.096,682.526 388.096,687.252C388.096,691.977 384.266,695.808 379.541,695.808C374.815,695.808 370.985,691.977 370.985,687.252C370.985,682.526 374.815,678.696 379.541,678.696Z" style="fill:rgb(27,22,22);fill-rule:nonzero;"/>
                <path d="M401.46,678.696C406.185,678.696 410.016,682.526 410.016,687.252C410.016,691.977 406.185,695.808 401.46,695.808C396.735,695.808 392.904,691.977 392.904,687.252C392.904,682.526 396.735,678.696 401.46,678.696Z" style="fill:rgb(27,22,22);fill-rule:nonzero;"/>
                <path d="M423.379,678.696C428.104,678.696 431.935,682.526 431.935,687.252C431.935,691.977 428.104,695.808 423.379,695.808C418.654,695.808 414.824,691.977 414.824,687.252C414.824,682.526 418.654,678.696 423.379,678.696Z" style="fill:rgb(27,22,22);fill-rule:nonzero;"/>
                <path d="M445.298,678.696C450.023,678.696 453.854,682.526 453.854,687.252C453.854,691.977 450.023,695.808 445.298,695.808C440.573,695.808 436.743,691.977 436.743,687.252C436.743,682.526 440.573,678.696 445.298,678.696Z" style="fill:rgb(27,22,22);fill-rule:nonzero;"/>
                <path d="M467.218,678.696C471.943,678.696 475.773,682.526 475.773,687.252C475.773,691.977 471.943,695.808 467.218,695.808C462.493,695.808 458.662,691.977 458.662,687.252C458.662,682.526 462.493,678.696 467.218,678.696Z" style="fill:rgb(27,22,22);fill-rule:nonzero;"/>
                <path d="M489.137,678.696C493.862,678.696 497.693,682.526 497.693,687.252C497.693,691.977 493.862,695.808 489.137,695.808C484.412,695.808 480.582,691.977 480.582,687.252C480.582,682.526 484.412,678.696 489.137,678.696Z" style="fill:rgb(27,22,22);fill-rule:nonzero;"/>
                <path d="M511.056,678.696C515.781,678.696 519.612,682.526 519.612,687.252C519.612,691.977 515.781,695.808 511.056,695.808C506.331,695.808 502.5,691.977 502.5,687.252C502.5,682.526 506.331,678.696 511.056,678.696Z" style="fill:rgb(27,22,22);fill-rule:nonzero;"/>
                <path d="M532.976,678.696C537.701,678.696 541.531,682.526 541.531,687.252C541.531,691.977 537.701,695.808 532.976,695.808C528.25,695.808 524.42,691.977 524.42,687.252C524.42,682.526 528.25,678.696 532.976,678.696Z" style="fill:rgb(27,22,22);fill-rule:nonzero;"/>
                <path d="M554.886,678.696C559.611,678.696 563.442,682.526 563.442,687.252C563.442,691.977 559.611,695.808 554.886,695.808C550.161,695.808 546.331,691.977 546.331,687.252C546.331,682.526 550.161,678.696 554.886,678.696Z" style="fill:rgb(27,22,22);fill-rule:nonzero;"/>
                <path d="M138.438,700.615C143.163,700.615 146.993,704.445 146.993,709.171C146.993,713.896 143.163,717.727 138.438,717.727C133.712,717.727 129.882,713.896 129.882,709.171C129.882,704.445 133.712,700.615 138.438,700.615Z" style="fill:rgb(27,22,22);fill-rule:nonzero;"/>
                <path d="M160.357,700.615C165.082,700.615 168.913,704.445 168.913,709.171C168.913,713.896 165.082,717.727 160.357,717.727C155.632,717.727 151.801,713.896 151.801,709.171C151.801,704.445 155.632,700.615 160.357,700.615Z" style="fill:rgb(27,22,22);fill-rule:nonzero;"/>
                <path d="M182.276,700.615C187.001,700.615 190.832,704.445 190.832,709.171C190.832,713.896 187.001,717.727 182.276,717.727C177.551,717.727 173.72,713.896 173.72,709.171C173.72,704.445 177.551,700.615 182.276,700.615Z" style="fill:rgb(27,22,22);fill-rule:nonzero;"/>
                <path d="M204.195,700.615C208.92,700.615 212.751,704.445 212.751,709.171C212.751,713.896 208.92,717.727 204.195,717.727C199.47,717.727 195.64,713.896 195.64,709.171C195.64,704.445 199.47,700.615 204.195,700.615Z" style="fill:rgb(27,22,22);fill-rule:nonzero;"/>
                <path d="M226.115,700.615C230.84,700.615 234.67,704.445 234.67,709.171C234.67,713.896 230.84,717.727 226.115,717.727C221.389,717.727 217.559,713.896 217.559,709.171C217.559,704.445 221.389,700.615 226.115,700.615Z" style="fill:rgb(27,22,22);fill-rule:nonzero;"/>
                <path d="M248.034,700.615C252.759,700.615 256.588,704.445 256.588,709.171C256.588,713.896 252.759,717.727 248.034,717.727C243.309,717.727 239.478,713.896 239.478,709.171C239.478,704.445 243.309,700.615 248.034,700.615Z" style="fill:rgb(27,22,22);fill-rule:nonzero;"/>
                <path d="M269.953,700.615C274.678,700.615 278.509,704.445 278.509,709.171C278.509,713.896 274.678,717.727 269.953,717.727C265.228,717.727 261.397,713.896 261.397,709.171C261.397,704.445 265.228,700.615 269.953,700.615Z" style="fill:rgb(27,22,22);fill-rule:nonzero;"/>
                <path d="M379.541,700.615C384.266,700.615 388.096,704.445 388.096,709.171C388.096,713.896 384.266,717.727 379.541,717.727C374.815,717.727 370.985,713.896 370.985,709.171C370.985,704.445 374.815,700.615 379.541,700.615Z" style="fill:rgb(27,22,22);fill-rule:nonzero;"/>
                <path d="M401.46,700.615C406.185,700.615 410.016,704.445 410.016,709.171C410.016,713.896 406.185,717.727 401.46,717.727C396.735,717.727 392.904,713.896 392.904,709.171C392.904,704.445 396.735,700.615 401.46,700.615Z" style="fill:rgb(27,22,22);fill-rule:nonzero;"/>
                <path d="M423.379,700.615C428.104,700.615 431.935,704.445 431.935,709.171C431.935,713.896 428.104,717.727 423.379,717.727C418.654,717.727 414.824,713.896 414.824,709.171C414.824,704.445 418.654,700.615 423.379,700.615Z" style="fill:rgb(27,22,22);fill-rule:nonzero;"/>
                <path d="M445.298,700.615C450.023,700.615 453.854,704.445 453.854,709.171C453.854,713.896 450.023,717.727 445.298,717.727C440.573,717.727 436.743,713.896 436.743,709.171C436.743,704.445 440.573,700.615 445.298,700.615Z" style="fill:rgb(27,22,22);fill-rule:nonzero;"/>
                <path d="M467.218,700.615C471.943,700.615 475.773,704.445 475.773,709.171C475.773,713.896 471.943,717.727 467.218,717.727C462.493,717.727 458.662,713.896 458.662,709.171C458.662,704.445 462.493,700.615 467.218,700.615Z" style="fill:rgb(27,22,22);fill-rule:nonzero;"/>
                <path d="M489.137,700.615C493.862,700.615 497.693,704.445 497.693,709.171C497.693,713.896 493.862,717.727 489.137,717.727C484.412,717.727 480.582,713.896 480.582,709.171C480.582,704.445 484.412,700.615 489.137,700.615Z" style="fill:rgb(27,22,22);fill-rule:nonzero;"/>
                <path d="M511.056,700.615C515.781,700.615 519.612,704.445 519.612,709.171C519.612,713.896 515.781,717.727 511.056,717.727C506.331,717.727 502.5,713.896 502.5,709.171C502.5,704.445 506.331,700.615 511.056,700.615Z" style="fill:rgb(27,22,22);fill-rule:nonzero;"/>
                <path d="M532.976,700.615C537.701,700.615 541.531,704.445 541.531,709.171C541.531,713.896 537.701,717.727 532.976,717.727C528.25,717.727 524.42,713.896 524.42,709.171C524.42,704.445 528.25,700.615 532.976,700.615Z" style="fill:rgb(27,22,22);fill-rule:nonzero;"/>
                <path d="M554.886,700.615C559.611,700.615 563.442,704.445 563.442,709.171C563.442,713.896 559.611,717.727 554.886,717.727C550.161,717.727 546.331,713.896 546.331,709.171C546.331,704.445 550.161,700.615 554.886,700.615Z" style="fill:rgb(27,22,22);fill-rule:nonzero;"/>
                <path d="M576.805,700.615C581.531,700.615 585.361,704.445 585.361,709.171C585.361,713.896 581.531,717.727 576.805,717.727C572.08,717.727 568.25,713.896 568.25,709.171C568.25,704.445 572.08,700.615 576.805,700.615Z" style="fill:rgb(27,22,22);fill-rule:nonzero;"/>
                <path d="M598.725,700.615C603.45,700.615 607.28,704.445 607.28,709.171C607.28,713.896 603.45,717.727 598.725,717.727C594,717.727 590.169,713.896 590.169,709.171C590.169,704.445 594,700.615 598.725,700.615Z" style="fill:rgb(27,22,22);fill-rule:nonzero;"/>
                <path d="M620.644,700.615C625.369,700.615 629.2,704.445 629.2,709.171C629.2,713.896 625.369,717.727 620.644,717.727C615.918,717.727 612.088,713.896 612.088,709.171C612.088,704.445 615.918,700.615 620.644,700.615Z" style="fill:rgb(27,22,22);fill-rule:nonzero;"/>
                <path d="M116.527,722.534C121.252,722.534 125.083,726.365 125.083,731.09C125.083,735.815 121.252,739.646 116.527,739.646C111.802,739.646 107.971,735.815 107.971,731.09C107.971,726.365 111.802,722.534 116.527,722.534Z" style="fill:rgb(27,22,22);fill-rule:nonzero;"/>
                <path d="M138.438,722.534C143.163,722.534 146.993,726.365 146.993,731.09C146.993,735.815 143.163,739.646 138.438,739.646C133.712,739.646 129.882,735.815 129.882,731.09C129.882,726.365 133.712,722.534 138.438,722.534Z" style="fill:rgb(27,22,22);fill-rule:nonzero;"/>
                <path d="M160.357,722.534C165.082,722.534 168.913,726.365 168.913,731.09C168.913,735.815 165.082,739.646 160.357,739.646C155.632,739.646 151.801,735.815 151.801,731.09C151.801,726.365 155.632,722.534 160.357,722.534Z" style="fill:rgb(27,22,22);fill-rule:nonzero;"/>
                <path d="M182.276,722.534C187.001,722.534 190.832,726.365 190.832,731.09C190.832,735.815 187.001,739.646 182.276,739.646C177.551,739.646 173.72,735.815 173.72,731.09C173.72,726.365 177.551,722.534 182.276,722.534Z" style="fill:rgb(27,22,22);fill-rule:nonzero;"/>
                <path d="M204.195,722.534C208.92,722.534 212.751,726.365 212.751,731.09C212.751,735.815 208.92,739.646 204.195,739.646C199.47,739.646 195.64,735.815 195.64,731.09C195.64,726.365 199.47,722.534 204.195,722.534Z" style="fill:rgb(27,22,22);fill-rule:nonzero;"/>
                <path d="M226.115,722.534C230.84,722.534 234.67,726.365 234.67,731.09C234.67,735.815 230.84,739.646 226.115,739.646C221.389,739.646 217.559,735.815 217.559,731.09C217.559,726.365 221.389,722.534 226.115,722.534Z" style="fill:rgb(27,22,22);fill-rule:nonzero;"/>
                <path d="M248.034,722.534C252.759,722.534 256.588,726.365 256.588,731.09C256.588,735.815 252.759,739.646 248.034,739.646C243.309,739.646 239.478,735.815 239.478,731.09C239.478,726.365 243.309,722.534 248.034,722.534Z" style="fill:rgb(27,22,22);fill-rule:nonzero;"/>
                <path d="M379.541,722.534C384.266,722.534 388.096,726.365 388.096,731.09C388.096,735.815 384.266,739.646 379.541,739.646C374.815,739.646 370.985,735.815 370.985,731.09C370.985,726.365 374.815,722.534 379.541,722.534Z" style="fill:rgb(27,22,22);fill-rule:nonzero;"/>
                <path d="M401.46,722.534C406.185,722.534 410.016,726.365 410.016,731.09C410.016,735.815 406.185,739.646 401.46,739.646C396.735,739.646 392.904,735.815 392.904,731.09C392.904,726.365 396.735,722.534 401.46,722.534Z" style="fill:rgb(27,22,22);fill-rule:nonzero;"/>
                <path d="M423.379,722.534C428.104,722.534 431.935,726.365 431.935,731.09C431.935,735.815 428.104,739.646 423.379,739.646C418.654,739.646 414.824,735.815 414.824,731.09C414.824,726.365 418.654,722.534 423.379,722.534Z" style="fill:rgb(27,22,22);fill-rule:nonzero;"/>
                <path d="M445.298,722.534C450.023,722.534 453.854,726.365 453.854,731.09C453.854,735.815 450.023,739.646 445.298,739.646C440.573,739.646 436.743,735.815 436.743,731.09C436.743,726.365 440.573,722.534 445.298,722.534Z" style="fill:rgb(27,22,22);fill-rule:nonzero;"/>
                <path d="M467.218,722.534C471.943,722.534 475.773,726.365 475.773,731.09C475.773,735.815 471.943,739.646 467.218,739.646C462.493,739.646 458.662,735.815 458.662,731.09C458.662,726.365 462.493,722.534 467.218,722.534Z" style="fill:rgb(27,22,22);fill-rule:nonzero;"/>
                <path d="M489.137,722.534C493.862,722.534 497.693,726.365 497.693,731.09C497.693,735.815 493.862,739.646 489.137,739.646C484.412,739.646 480.582,735.815 480.582,731.09C480.582,726.365 484.412,722.534 489.137,722.534Z" style="fill:rgb(27,22,22);fill-rule:nonzero;"/>
                <path d="M511.056,722.534C515.781,722.534 519.612,726.365 519.612,731.09C519.612,735.815 515.781,739.646 511.056,739.646C506.331,739.646 502.5,735.815 502.5,731.09C502.5,726.365 506.331,722.534 511.056,722.534Z" style="fill:rgb(27,22,22);fill-rule:nonzero;"/>
                <path d="M532.976,722.534C537.701,722.534 541.531,726.365 541.531,731.09C541.531,735.815 537.701,739.646 532.976,739.646C528.25,739.646 524.42,735.815 524.42,731.09C524.42,726.365 528.25,722.534 532.976,722.534Z" style="fill:rgb(27,22,22);fill-rule:nonzero;"/>
                <path d="M554.886,722.534C559.611,722.534 563.442,726.365 563.442,731.09C563.442,735.815 559.611,739.646 554.886,739.646C550.161,739.646 546.331,735.815 546.331,731.09C546.331,726.365 550.161,722.534 554.886,722.534Z" style="fill:rgb(27,22,22);fill-rule:nonzero;"/>
                <path d="M576.805,722.534C581.531,722.534 585.361,726.365 585.361,731.09C585.361,735.815 581.531,739.646 576.805,739.646C572.08,739.646 568.25,735.815 568.25,731.09C568.25,726.365 572.08,722.534 576.805,722.534Z" style="fill:rgb(27,22,22);fill-rule:nonzero;"/>
                <path d="M598.725,722.534C603.45,722.534 607.28,726.365 607.28,731.09C607.28,735.815 603.45,739.646 598.725,739.646C594,739.646 590.169,735.815 590.169,731.09C590.169,726.365 594,722.534 598.725,722.534Z" style="fill:rgb(27,22,22);fill-rule:nonzero;"/>
                <path d="M620.644,722.534C625.369,722.534 629.2,726.365 629.2,731.09C629.2,735.815 625.369,739.646 620.644,739.646C615.918,739.646 612.088,735.815 612.088,731.09C612.088,726.365 615.918,722.534 620.644,722.534Z" style="fill:rgb(27,22,22);fill-rule:nonzero;"/>
                <path d="M94.607,744.454C99.333,744.454 103.164,748.284 103.164,753.01C103.164,757.734 99.333,761.565 94.607,761.565C89.882,761.565 86.051,757.734 86.051,753.01C86.051,748.284 89.882,744.454 94.607,744.454Z" style="fill:rgb(27,22,22);fill-rule:nonzero;"/>
                <path d="M116.527,744.454C121.252,744.454 125.083,748.284 125.083,753.01C125.083,757.734 121.252,761.565 116.527,761.565C111.802,761.565 107.971,757.734 107.971,753.01C107.971,748.284 111.802,744.454 116.527,744.454Z" style="fill:rgb(27,22,22);fill-rule:nonzero;"/>
                <path d="M138.438,744.454C143.163,744.454 146.993,748.284 146.993,753.01C146.993,757.734 143.163,761.565 138.438,761.565C133.712,761.565 129.882,757.734 129.882,753.01C129.882,748.284 133.712,744.454 138.438,744.454Z" style="fill:rgb(27,22,22);fill-rule:nonzero;"/>
                <path d="M160.357,744.454C165.082,744.454 168.913,748.284 168.913,753.01C168.913,757.734 165.082,761.565 160.357,761.565C155.632,761.565 151.801,757.734 151.801,753.01C151.801,748.284 155.632,744.454 160.357,744.454Z" style="fill:rgb(27,22,22);fill-rule:nonzero;"/>
                <path d="M182.276,744.454C187.001,744.454 190.832,748.284 190.832,753.01C190.832,757.734 187.001,761.565 182.276,761.565C177.551,761.565 173.72,757.734 173.72,753.01C173.72,748.284 177.551,744.454 182.276,744.454Z" style="fill:rgb(27,22,22);fill-rule:nonzero;"/>
                <path d="M204.195,744.454C208.92,744.454 212.751,748.284 212.751,753.01C212.751,757.734 208.92,761.565 204.195,761.565C199.47,761.565 195.64,757.734 195.64,753.01C195.64,748.284 199.47,744.454 204.195,744.454Z" style="fill:rgb(27,22,22);fill-rule:nonzero;"/>
                <path d="M226.115,744.454C230.84,744.454 234.67,748.284 234.67,753.01C234.67,757.734 230.84,761.565 226.115,761.565C221.389,761.565 217.559,757.734 217.559,753.01C217.559,748.284 221.389,744.454 226.115,744.454Z" style="fill:rgb(27,22,22);fill-rule:nonzero;"/>
                <path d="M357.622,744.454C362.347,744.454 366.177,748.284 366.177,753.01C366.177,757.734 362.347,761.565 357.622,761.565C352.896,761.565 349.066,757.734 349.066,753.01C349.066,748.284 352.896,744.454 357.622,744.454Z" style="fill:rgb(27,22,22);fill-rule:nonzero;"/>
                <path d="M379.541,744.454C384.266,744.454 388.096,748.284 388.096,753.01C388.096,757.734 384.266,761.565 379.541,761.565C374.815,761.565 370.985,757.734 370.985,753.01C370.985,748.284 374.815,744.454 379.541,744.454Z" style="fill:rgb(27,22,22);fill-rule:nonzero;"/>
                <path d="M401.46,744.454C406.185,744.454 410.016,748.284 410.016,753.01C410.016,757.734 406.185,761.565 401.46,761.565C396.735,761.565 392.904,757.734 392.904,753.01C392.904,748.284 396.735,744.454 401.46,744.454Z" style="fill:rgb(27,22,22);fill-rule:nonzero;"/>
                <path d="M423.379,744.454C428.104,744.454 431.935,748.284 431.935,753.01C431.935,757.734 428.104,761.565 423.379,761.565C418.654,761.565 414.824,757.734 414.824,753.01C414.824,748.284 418.654,744.454 423.379,744.454Z" style="fill:rgb(27,22,22);fill-rule:nonzero;"/>
                <path d="M445.298,744.454C450.023,744.454 453.854,748.284 453.854,753.01C453.854,757.734 450.023,761.565 445.298,761.565C440.573,761.565 436.743,757.734 436.743,753.01C436.743,748.284 440.573,744.454 445.298,744.454Z" style="fill:rgb(27,22,22);fill-rule:nonzero;"/>
                <path d="M467.218,744.454C471.943,744.454 475.773,748.284 475.773,753.01C475.773,757.734 471.943,761.565 467.218,761.565C462.493,761.565 458.662,757.734 458.662,753.01C458.662,748.284 462.493,744.454 467.218,744.454Z" style="fill:rgb(27,22,22);fill-rule:nonzero;"/>
                <path d="M489.137,744.454C493.862,744.454 497.693,748.284 497.693,753.01C497.693,757.734 493.862,761.565 489.137,761.565C484.412,761.565 480.582,757.734 480.582,753.01C480.582,748.284 484.412,744.454 489.137,744.454Z" style="fill:rgb(27,22,22);fill-rule:nonzero;"/>
                <path d="M511.056,744.454C515.781,744.454 519.612,748.284 519.612,753.01C519.612,757.734 515.781,761.565 511.056,761.565C506.331,761.565 502.5,757.734 502.5,753.01C502.5,748.284 506.331,744.454 511.056,744.454Z" style="fill:rgb(27,22,22);fill-rule:nonzero;"/>
                <path d="M532.976,744.454C537.701,744.454 541.531,748.284 541.531,753.01C541.531,757.734 537.701,761.565 532.976,761.565C528.25,761.565 524.42,757.734 524.42,753.01C524.42,748.284 528.25,744.454 532.976,744.454Z" style="fill:rgb(27,22,22);fill-rule:nonzero;"/>
                <path d="M554.886,744.454C559.611,744.454 563.442,748.284 563.442,753.01C563.442,757.734 559.611,761.565 554.886,761.565C550.161,761.565 546.331,757.734 546.331,753.01C546.331,748.284 550.161,744.454 554.886,744.454Z" style="fill:rgb(27,22,22);fill-rule:nonzero;"/>
                <path d="M576.805,744.454C581.531,744.454 585.361,748.284 585.361,753.01C585.361,757.734 581.531,761.565 576.805,761.565C572.08,761.565 568.25,757.734 568.25,753.01C568.25,748.284 572.08,744.454 576.805,744.454Z" style="fill:rgb(27,22,22);fill-rule:nonzero;"/>
                <path d="M598.725,744.454C603.45,744.454 607.28,748.284 607.28,753.01C607.28,757.734 603.45,761.565 598.725,761.565C594,761.565 590.169,757.734 590.169,753.01C590.169,748.284 594,744.454 598.725,744.454Z" style="fill:rgb(27,22,22);fill-rule:nonzero;"/>
                <path d="M116.527,766.373C121.252,766.373 125.083,770.203 125.083,774.929C125.083,779.654 121.252,783.484 116.527,783.484C111.802,783.484 107.971,779.654 107.971,774.929C107.971,770.203 111.802,766.373 116.527,766.373Z" style="fill:rgb(27,22,22);fill-rule:nonzero;"/>
                <path d="M138.438,766.373C143.163,766.373 146.993,770.203 146.993,774.929C146.993,779.654 143.163,783.484 138.438,783.484C133.712,783.484 129.882,779.654 129.882,774.929C129.882,770.203 133.712,766.373 138.438,766.373Z" style="fill:rgb(27,22,22);fill-rule:nonzero;"/>
                <path d="M160.357,766.373C165.082,766.373 168.913,770.203 168.913,774.929C168.913,779.654 165.082,783.484 160.357,783.484C155.632,783.484 151.801,779.654 151.801,774.929C151.801,770.203 155.632,766.373 160.357,766.373Z" style="fill:rgb(27,22,22);fill-rule:nonzero;"/>
                <path d="M182.276,766.373C187.001,766.373 190.832,770.203 190.832,774.929C190.832,779.654 187.001,783.484 182.276,783.484C177.551,783.484 173.72,779.654 173.72,774.929C173.72,770.203 177.551,766.373 182.276,766.373Z" style="fill:rgb(27,22,22);fill-rule:nonzero;"/>
                <path d="M335.702,766.373C340.427,766.373 344.258,770.203 344.258,774.929C344.258,779.654 340.427,783.484 335.702,783.484C330.977,783.484 327.146,779.654 327.146,774.929C327.146,770.203 330.977,766.373 335.702,766.373Z" style="fill:rgb(27,22,22);fill-rule:nonzero;"/>
                <path d="M357.622,766.373C362.347,766.373 366.177,770.203 366.177,774.929C366.177,779.654 362.347,783.484 357.622,783.484C352.896,783.484 349.066,779.654 349.066,774.929C349.066,770.203 352.896,766.373 357.622,766.373Z" style="fill:rgb(27,22,22);fill-rule:nonzero;"/>
                <path d="M379.541,766.373C384.266,766.373 388.096,770.203 388.096,774.929C388.096,779.654 384.266,783.484 379.541,783.484C374.815,783.484 370.985,779.654 370.985,774.929C370.985,770.203 374.815,766.373 379.541,766.373Z" style="fill:rgb(27,22,22);fill-rule:nonzero;"/>
                <path d="M401.46,766.373C406.185,766.373 410.016,770.203 410.016,774.929C410.016,779.654 406.185,783.484 401.46,783.484C396.735,783.484 392.904,779.654 392.904,774.929C392.904,770.203 396.735,766.373 401.46,766.373Z" style="fill:rgb(27,22,22);fill-rule:nonzero;"/>
                <path d="M423.379,766.373C428.104,766.373 431.935,770.203 431.935,774.929C431.935,779.654 428.104,783.484 423.379,783.484C418.654,783.484 414.824,779.654 414.824,774.929C414.824,770.203 418.654,766.373 423.379,766.373Z" style="fill:rgb(27,22,22);fill-rule:nonzero;"/>
                <path d="M445.298,766.373C450.023,766.373 453.854,770.203 453.854,774.929C453.854,779.654 450.023,783.484 445.298,783.484C440.573,783.484 436.743,779.654 436.743,774.929C436.743,770.203 440.573,766.373 445.298,766.373Z" style="fill:rgb(27,22,22);fill-rule:nonzero;"/>
                <path d="M467.218,766.373C471.943,766.373 475.773,770.203 475.773,774.929C475.773,779.654 471.943,783.484 467.218,783.484C462.493,783.484 458.662,779.654 458.662,774.929C458.662,770.203 462.493,766.373 467.218,766.373Z" style="fill:rgb(27,22,22);fill-rule:nonzero;"/>
                <path d="M489.137,766.373C493.862,766.373 497.693,770.203 497.693,774.929C497.693,779.654 493.862,783.484 489.137,783.484C484.412,783.484 480.582,779.654 480.582,774.929C480.582,770.203 484.412,766.373 489.137,766.373Z" style="fill:rgb(255,0,0);fill-rule:nonzero;"/>
                <path d="M511.056,766.373C515.781,766.373 519.612,770.203 519.612,774.929C519.612,779.654 515.781,783.484 511.056,783.484C506.331,783.484 502.5,779.654 502.5,774.929C502.5,770.203 506.331,766.373 511.056,766.373Z" style="fill:rgb(27,22,22);fill-rule:nonzero;"/>
                <path d="M532.976,766.373C537.701,766.373 541.531,770.203 541.531,774.929C541.531,779.654 537.701,783.484 532.976,783.484C528.25,783.484 524.42,779.654 524.42,774.929C524.42,770.203 528.25,766.373 532.976,766.373Z" style="fill:rgb(27,22,22);fill-rule:nonzero;"/>
                <path d="M554.886,766.373C559.611,766.373 563.442,770.203 563.442,774.929C563.442,779.654 559.611,783.484 554.886,783.484C550.161,783.484 546.331,779.654 546.331,774.929C546.331,770.203 550.161,766.373 554.886,766.373Z" style="fill:rgb(27,22,22);fill-rule:nonzero;"/>
                <path d="M576.805,766.373C581.531,766.373 585.361,770.203 585.361,774.929C585.361,779.654 581.531,783.484 576.805,783.484C572.08,783.484 568.25,779.654 568.25,774.929C568.25,770.203 572.08,766.373 576.805,766.373Z" style="fill:rgb(27,22,22);fill-rule:nonzero;"/>
                <path d="M598.725,766.373C603.45,766.373 607.28,770.203 607.28,774.929C607.28,779.654 603.45,783.484 598.725,783.484C594,783.484 590.169,779.654 590.169,774.929C590.169,770.203 594,766.373 598.725,766.373Z" style="fill:rgb(27,22,22);fill-rule:nonzero;"/>
                <path d="M116.527,788.292C121.252,788.292 125.083,792.123 125.083,796.848C125.083,801.573 121.252,805.403 116.527,805.403C111.802,805.403 107.971,801.573 107.971,796.848C107.971,792.123 111.802,788.292 116.527,788.292Z" style="fill:rgb(27,22,22);fill-rule:nonzero;"/>
                <path d="M138.438,788.292C143.163,788.292 146.993,792.123 146.993,796.848C146.993,801.573 143.163,805.403 138.438,805.403C133.712,805.403 129.882,801.573 129.882,796.848C129.882,792.123 133.712,788.292 138.438,788.292Z" style="fill:rgb(27,22,22);fill-rule:nonzero;"/>
                <path d="M379.541,788.292C384.266,788.292 388.096,792.123 388.096,796.848C388.096,801.573 384.266,805.403 379.541,805.403C374.815,805.403 370.985,801.573 370.985,796.848C370.985,792.123 374.815,788.292 379.541,788.292Z" style="fill:rgb(27,22,22);fill-rule:nonzero;"/>
                <path d="M401.46,788.292C406.185,788.292 410.016,792.123 410.016,796.848C410.016,801.573 406.185,805.403 401.46,805.403C396.735,805.403 392.904,801.573 392.904,796.848C392.904,792.123 396.735,788.292 401.46,788.292Z" style="fill:rgb(27,22,22);fill-rule:nonzero;"/>
                <path d="M423.379,788.292C428.104,788.292 431.935,792.123 431.935,796.848C431.935,801.573 428.104,805.403 423.379,805.403C418.654,805.403 414.824,801.573 414.824,796.848C414.824,792.123 418.654,788.292 423.379,788.292Z" style="fill:rgb(27,22,22);fill-rule:nonzero;"/>
                <path d="M445.298,788.292C450.023,788.292 453.854,792.123 453.854,796.848C453.854,801.573 450.023,805.403 445.298,805.403C440.573,805.403 436.743,801.573 436.743,796.848C436.743,792.123 440.573,788.292 445.298,788.292Z" style="fill:rgb(27,22,22);fill-rule:nonzero;"/>
                <path d="M467.218,788.292C471.943,788.292 475.773,792.123 475.773,796.848C475.773,801.573 471.943,805.403 467.218,805.403C462.493,805.403 458.662,801.573 458.662,796.848C458.662,792.123 462.493,788.292 467.218,788.292Z" style="fill:rgb(27,22,22);fill-rule:nonzero;"/>
                <path d="M489.137,788.292C493.862,788.292 497.693,792.123 497.693,796.848C497.693,801.573 493.862,805.403 489.137,805.403C484.412,805.403 480.582,801.573 480.582,796.848C480.582,792.123 484.412,788.292 489.137,788.292Z" style="fill:rgb(27,22,22);fill-rule:nonzero;"/>
                <path d="M511.056,788.292C515.781,788.292 519.612,792.123 519.612,796.848C519.612,801.573 515.781,805.403 511.056,805.403C506.331,805.403 502.5,801.573 502.5,796.848C502.5,792.123 506.331,788.292 511.056,788.292Z" style="fill:rgb(27,22,22);fill-rule:nonzero;"/>
                <path d="M532.976,788.292C537.701,788.292 541.531,792.123 541.531,796.848C541.531,801.573 537.701,805.403 532.976,805.403C528.25,805.403 524.42,801.573 524.42,796.848C524.42,792.123 528.25,788.292 532.976,788.292Z" style="fill:rgb(27,22,22);fill-rule:nonzero;"/>
                <path d="M554.886,788.292C559.611,788.292 563.442,792.123 563.442,796.848C563.442,801.573 559.611,805.403 554.886,805.403C550.161,805.403 546.331,801.573 546.331,796.848C546.331,792.123 550.161,788.292 554.886,788.292Z" style="fill:rgb(27,22,22);fill-rule:nonzero;"/>
                <path d="M357.622,810.212C362.347,810.212 366.177,814.042 366.177,818.768C366.177,823.492 362.347,827.323 357.622,827.323C352.896,827.323 349.066,823.492 349.066,818.768C349.066,814.042 352.896,810.212 357.622,810.212Z" style="fill:rgb(27,22,22);fill-rule:nonzero;"/>
                <path d="M379.541,810.212C384.266,810.212 388.096,814.042 388.096,818.768C388.096,823.492 384.266,827.323 379.541,827.323C374.815,827.323 370.985,823.492 370.985,818.768C370.985,814.042 374.815,810.212 379.541,810.212Z" style="fill:rgb(27,22,22);fill-rule:nonzero;"/>
                <path d="M401.46,810.212C406.185,810.212 410.016,814.042 410.016,818.768C410.016,823.492 406.185,827.323 401.46,827.323C396.735,827.323 392.904,823.492 392.904,818.768C392.904,814.042 396.735,810.212 401.46,810.212Z" style="fill:rgb(27,22,22);fill-rule:nonzero;"/>
                <path d="M423.379,810.212C428.104,810.212 431.935,814.042 431.935,818.768C431.935,823.492 428.104,827.323 423.379,827.323C418.654,827.323 414.824,823.492 414.824,818.768C414.824,814.042 418.654,810.212 423.379,810.212Z" style="fill:rgb(27,22,22);fill-rule:nonzero;"/>
                <path d="M445.298,810.212C450.023,810.212 453.854,814.042 453.854,818.768C453.854,823.492 450.023,827.323 445.298,827.323C440.573,827.323 436.743,823.492 436.743,818.768C436.743,814.042 440.573,810.212 445.298,810.212Z" style="fill:rgb(27,22,22);fill-rule:nonzero;"/>
                <path d="M467.218,810.212C471.943,810.212 475.773,814.042 475.773,818.768C475.773,823.492 471.943,827.323 467.218,827.323C462.493,827.323 458.662,823.492 458.662,818.768C458.662,814.042 462.493,810.212 467.218,810.212Z" style="fill:rgb(27,22,22);fill-rule:nonzero;"/>
                <path d="M489.137,810.212C493.862,810.212 497.693,814.042 497.693,818.768C497.693,823.492 493.862,827.323 489.137,827.323C484.412,827.323 480.582,823.492 480.582,818.768C480.582,814.042 484.412,810.212 489.137,810.212Z" style="fill:rgb(27,22,22);fill-rule:nonzero;"/>
                <path d="M511.056,810.212C515.781,810.212 519.612,814.042 519.612,818.768C519.612,823.492 515.781,827.323 511.056,827.323C506.331,827.323 502.5,823.492 502.5,818.768C502.5,814.042 506.331,810.212 511.056,810.212Z" style="fill:rgb(27,22,22);fill-rule:nonzero;"/>
                <path d="M532.976,810.212C537.701,810.212 541.531,814.042 541.531,818.768C541.531,823.492 537.701,827.323 532.976,827.323C528.25,827.323 524.42,823.492 524.42,818.768C524.42,814.042 528.25,810.212 532.976,810.212Z" style="fill:rgb(27,22,22);fill-rule:nonzero;"/>
                <path d="M554.886,810.212C559.611,810.212 563.442,814.042 563.442,818.768C563.442,823.492 559.611,827.323 554.886,827.323C550.161,827.323 546.331,823.492 546.331,818.768C546.331,814.042 550.161,810.212 554.886,810.212Z" style="fill:rgb(27,22,22);fill-rule:nonzero;"/>
                <path d="M576.805,810.212C581.531,810.212 585.361,814.042 585.361,818.768C585.361,823.492 581.531,827.323 576.805,827.323C572.08,827.323 568.25,823.492 568.25,818.768C568.25,814.042 572.08,810.212 576.805,810.212Z" style="fill:rgb(27,22,22);fill-rule:nonzero;"/>
                <path d="M598.725,810.212C603.45,810.212 607.28,814.042 607.28,818.768C607.28,823.492 603.45,827.323 598.725,827.323C594,827.323 590.169,823.492 590.169,818.768C590.169,814.042 594,810.212 598.725,810.212Z" style="fill:rgb(27,22,22);fill-rule:nonzero;"/>
                <path d="M357.622,832.122C362.347,832.122 366.177,835.953 366.177,840.678C366.177,845.403 362.347,849.233 357.622,849.233C352.896,849.233 349.066,845.403 349.066,840.678C349.066,835.953 352.896,832.122 357.622,832.122Z" style="fill:rgb(27,22,22);fill-rule:nonzero;"/>
                <path d="M379.541,832.122C384.266,832.122 388.096,835.953 388.096,840.678C388.096,845.403 384.266,849.233 379.541,849.233C374.815,849.233 370.985,845.403 370.985,840.678C370.985,835.953 374.815,832.122 379.541,832.122Z" style="fill:rgb(27,22,22);fill-rule:nonzero;"/>
                <path d="M401.46,832.122C406.185,832.122 410.016,835.953 410.016,840.678C410.016,845.403 406.185,849.233 401.46,849.233C396.735,849.233 392.904,845.403 392.904,840.678C392.904,835.953 396.735,832.122 401.46,832.122Z" style="fill:rgb(27,22,22);fill-rule:nonzero;"/>
                <path d="M423.379,832.122C428.104,832.122 431.935,835.953 431.935,840.678C431.935,845.403 428.104,849.233 423.379,849.233C418.654,849.233 414.824,845.403 414.824,840.678C414.824,835.953 418.654,832.122 423.379,832.122Z" style="fill:rgb(27,22,22);fill-rule:nonzero;"/>
                <path d="M445.298,832.122C450.023,832.122 453.854,835.953 453.854,840.678C453.854,845.403 450.023,849.233 445.298,849.233C440.573,849.233 436.743,845.403 436.743,840.678C436.743,835.953 440.573,832.122 445.298,832.122Z" style="fill:rgb(27,22,22);fill-rule:nonzero;"/>
                <path d="M467.218,832.122C471.943,832.122 475.773,835.953 475.773,840.678C475.773,845.403 471.943,849.233 467.218,849.233C462.493,849.233 458.662,845.403 458.662,840.678C458.662,835.953 462.493,832.122 467.218,832.122Z" style="fill:rgb(27,22,22);fill-rule:nonzero;"/>
                <path d="M489.137,832.122C493.862,832.122 497.693,835.953 497.693,840.678C497.693,845.403 493.862,849.233 489.137,849.233C484.412,849.233 480.582,845.403 480.582,840.678C480.582,835.953 484.412,832.122 489.137,832.122Z" style="fill:rgb(27,22,22);fill-rule:nonzero;"/>
                <path d="M511.056,832.122C515.781,832.122 519.612,835.953 519.612,840.678C519.612,845.403 515.781,849.233 511.056,849.233C506.331,849.233 502.5,845.403 502.5,840.678C502.5,835.953 506.331,832.122 511.056,832.122Z" style="fill:rgb(27,22,22);fill-rule:nonzero;"/>
                <path d="M532.976,832.122C537.701,832.122 541.531,835.953 541.531,840.678C541.531,845.403 537.701,849.233 532.976,849.233C528.25,849.233 524.42,845.403 524.42,840.678C524.42,835.953 528.25,832.122 532.976,832.122Z" style="fill:rgb(27,22,22);fill-rule:nonzero;"/>
                <path d="M554.886,832.122C559.611,832.122 563.442,835.953 563.442,840.678C563.442,845.403 559.611,849.233 554.886,849.233C550.161,849.233 546.331,845.403 546.331,840.678C546.331,835.953 550.161,832.122 554.886,832.122Z" style="fill:rgb(27,22,22);fill-rule:nonzero;"/>
                <path d="M576.805,832.122C581.531,832.122 585.361,835.953 585.361,840.678C585.361,845.403 581.531,849.233 576.805,849.233C572.08,849.233 568.25,845.403 568.25,840.678C568.25,835.953 572.08,832.122 576.805,832.122Z" style="fill:rgb(27,22,22);fill-rule:nonzero;"/>
                <path d="M335.702,854.05C340.427,854.05 344.258,857.881 344.258,862.605C344.258,867.331 340.427,871.161 335.702,871.161C330.977,871.161 327.146,867.331 327.146,862.605C327.146,857.881 330.977,854.05 335.702,854.05Z" style="fill:rgb(27,22,22);fill-rule:nonzero;"/>
                <path d="M357.622,854.05C362.347,854.05 366.177,857.881 366.177,862.605C366.177,867.331 362.347,871.161 357.622,871.161C352.896,871.161 349.066,867.331 349.066,862.605C349.066,857.881 352.896,854.05 357.622,854.05Z" style="fill:rgb(27,22,22);fill-rule:nonzero;"/>
                <path d="M379.541,854.05C384.266,854.05 388.096,857.881 388.096,862.605C388.096,867.331 384.266,871.161 379.541,871.161C374.815,871.161 370.985,867.331 370.985,862.605C370.985,857.881 374.815,854.05 379.541,854.05Z" style="fill:rgb(27,22,22);fill-rule:nonzero;"/>
                <path d="M489.137,854.05C493.862,854.05 497.693,857.881 497.693,862.605C497.693,867.331 493.862,871.161 489.137,871.161C484.412,871.161 480.582,867.331 480.582,862.605C480.582,857.881 484.412,854.05 489.137,854.05Z" style="fill:rgb(27,22,22);fill-rule:nonzero;"/>
                <path d="M313.783,875.97C318.508,875.97 322.339,879.8 322.339,884.525C322.339,889.25 318.508,893.081 313.783,893.081C309.058,893.081 305.228,889.25 305.228,884.525C305.228,879.8 309.058,875.97 313.783,875.97Z" style="fill:rgb(27,22,22);fill-rule:nonzero;"/>
                <path d="M335.702,875.97C340.427,875.97 344.258,879.8 344.258,884.525C344.258,889.25 340.427,893.081 335.702,893.081C330.977,893.081 327.146,889.25 327.146,884.525C327.146,879.8 330.977,875.97 335.702,875.97Z" style="fill:rgb(27,22,22);fill-rule:nonzero;"/>
                <path d="M379.541,875.97C384.266,875.97 388.096,879.8 388.096,884.525C388.096,889.25 384.266,893.081 379.541,893.081C374.815,893.081 370.985,889.25 370.985,884.525C370.985,879.8 374.815,875.97 379.541,875.97Z" style="fill:rgb(27,22,22);fill-rule:nonzero;"/>
                <path d="M269.953,897.889C274.678,897.889 278.509,901.719 278.509,906.444C278.509,911.17 274.678,915 269.953,915C265.228,915 261.397,911.17 261.397,906.444C261.397,901.719 265.228,897.889 269.953,897.889Z" style="fill:rgb(27,22,22);fill-rule:nonzero;"/>
            </g>
            <g transform="matrix(0.168076,0,0,0.168076,139.066,227.293)">
                <circle cx="2082.51" cy="3258.21" r="79.105" style="fill:rgb(255,0,0);"/>
            </g>
        </g>
    </g>
</svg>
